<svg width="572" height="448" viewBox="0 0 572 448" fill="none" xmlns="http://www.w3.org/2000/svg">
<g clip-path="url(#clip0_73_1015)">
<path d="M533.255 301.37C533.1 307.134 532.131 312.847 530.377 318.341C530.338 318.469 530.295 318.594 530.253 318.722H519.513C519.524 318.608 519.536 318.48 519.547 318.341C520.263 310.137 516.172 260.801 511.236 252.262C511.668 252.954 534.088 275.302 533.255 301.37Z" fill="#F3F3F3"/>
<path d="M532.449 318.341C532.359 318.469 532.266 318.596 532.17 318.722H524.113C524.174 318.613 524.245 318.486 524.327 318.341C525.658 315.947 529.598 308.79 533.254 301.37C537.183 293.396 540.79 285.12 540.486 282.125C540.58 282.8 543.3 303.395 532.449 318.341Z" fill="#F3F3F3"/>
<path d="M29.7224 305.835C29.8375 310.116 30.5571 314.359 31.86 318.439C31.8888 318.534 31.9209 318.627 31.9521 318.722H39.9286C39.9202 318.637 39.9116 318.542 39.9032 318.439C39.3714 312.346 42.4097 275.704 46.0759 269.363C45.7547 269.877 29.1039 286.475 29.7224 305.835Z" fill="#F3F3F3"/>
<path d="M30.321 318.439C30.3877 318.534 30.4571 318.629 30.5281 318.722H36.5123C36.4669 318.641 36.4144 318.547 36.3534 318.439C35.3649 316.661 32.439 311.346 29.7231 305.835C26.8055 299.913 24.1266 293.766 24.3522 291.542C24.2822 292.043 22.2625 307.339 30.321 318.439Z" fill="#F3F3F3"/>
<path d="M419.412 224.463C359.167 199.02 304.664 199.988 253.326 215.517C174.226 201.75 120.061 203.88 85.3174 224.463V160.559H419.412V224.463Z" fill="#CBCBCB"/>
<path d="M419.411 206.89C363.909 181.828 308.474 180.21 252.204 206.89C194.569 190.352 138.853 190.525 84.9966 206.89V12.6211C142.257 -4.41 197.956 -4.00073 252.204 12.6211C309.507 -3.94332 365.293 -4.46866 419.411 12.6211V206.89Z" fill="#F3F3F3"/>
<path d="M100.038 36.7296L98.1707 31.9676C98.9024 31.6828 116.387 24.9466 142.048 21.5105C165.772 18.3331 201.117 17.5745 234.781 32.0001L232.755 36.6968C200.217 22.754 165.916 23.4882 142.87 26.5586C117.787 29.9014 100.212 36.6615 100.038 36.7296Z" fill="white"/>
<path d="M100.038 54.6228L98.1707 49.8608C98.9024 49.5759 116.387 42.8398 142.048 39.4037C165.772 36.2266 201.117 35.468 234.781 49.8933L232.755 54.59C200.217 40.6472 165.916 41.3807 142.87 44.4518C117.787 47.7946 100.212 54.5547 100.038 54.6228Z" fill="white"/>
<path d="M100.038 72.5159L98.1707 67.754C98.9024 67.4691 116.387 60.733 142.048 57.2969C165.772 54.1194 201.117 53.3609 234.781 67.7864L232.755 72.4831C200.217 58.5403 165.916 59.2739 142.87 62.3449C117.787 65.6877 100.212 72.4479 100.038 72.5159Z" fill="white"/>
<path d="M100.038 90.409L98.1707 85.6471C98.9024 85.3622 116.387 78.6261 142.048 75.19C165.772 72.0132 201.117 71.2537 234.781 85.6796L232.755 90.3763C200.217 76.4334 165.916 77.1673 142.87 80.2381C117.787 83.5808 100.212 90.341 100.038 90.409Z" fill="white"/>
<path d="M100.038 108.302L98.1707 103.54C98.9024 103.255 116.387 96.5193 142.048 93.0832C165.772 89.9058 201.117 89.1472 234.781 103.573L232.755 108.269C200.217 94.3263 165.916 95.0606 142.87 98.1313C117.787 101.474 100.212 108.234 100.038 108.302Z" fill="white"/>
<path d="M100.038 126.195L98.1707 121.433C98.9024 121.149 116.387 114.412 142.048 110.976C165.772 107.8 201.117 107.04 234.781 121.466L232.755 126.163C200.217 112.219 165.916 112.954 142.87 116.024C117.787 119.367 100.212 126.127 100.038 126.195Z" fill="white"/>
<path d="M267.405 163.899L265.538 159.137C266.27 158.852 283.755 152.116 309.415 148.68C333.139 145.503 368.485 144.744 402.149 159.169L400.122 163.866C367.584 149.923 333.283 150.657 310.238 153.728C285.154 157.071 267.58 163.831 267.405 163.899Z" fill="#287FE4"/>
<path d="M265.831 129.558V31.83L267.631 31.2696C313.252 17.0681 358.652 17.0709 402.569 31.2781L404.342 31.8516V129.428L400.871 128.123C355.169 110.934 310.929 110.923 269.378 128.093L265.831 129.558ZM333.524 110.1C354.996 110.1 376.892 114.088 399.212 122.066V35.5754C357.457 22.4529 314.325 22.46 270.961 35.5963V121.947C290.885 114.124 312.109 110.105 333.524 110.1Z" fill="white"/>
<path d="M399.318 161.367L399.99 145.102L423.041 99.4304C423.691 98.132 424.751 97.082 426.057 96.4419C426.858 96.0441 427.729 95.8093 428.622 95.7512C429.514 95.6932 430.409 95.813 431.254 96.1037C432.233 96.4401 433.121 96.9974 433.849 97.7321C434.576 98.4667 435.123 99.3589 435.448 100.339C435.587 100.762 435.685 101.198 435.74 101.64C435.904 102.951 435.671 104.282 435.071 105.46L411.989 151.194L399.318 161.367Z" fill="#287FE4"/>
<path d="M428.928 96.0577L403.907 145.635L401.999 144.678L426.199 96.7286C427.047 96.3055 427.98 96.0763 428.928 96.0577Z" fill="#1F1F1F"/>
<path d="M435.422 101.68L411.354 149.367L409.446 148.411L434.416 98.9371C434.723 99.404 434.968 99.9089 435.143 100.439C435.276 100.843 435.369 101.259 435.422 101.68Z" fill="#1F1F1F"/>
<path d="M433.025 97.4249L407.727 147.55L405.82 146.594L431.149 96.4059C431.419 96.4979 431.683 96.6083 431.937 96.7364C432.322 96.9296 432.686 97.1602 433.025 97.4249Z" fill="#1F1F1F"/>
<path d="M402.212 158.634L399.667 160.677L399.88 155.29C400.754 155.593 401.7 156.904 402.212 158.634Z" fill="#1F1F1F"/>
<path d="M151.128 217.34L148.08 208.128L151.327 177.837C151.416 176.977 151.786 176.17 152.38 175.54C152.743 175.151 153.18 174.838 153.665 174.619C154.151 174.4 154.675 174.28 155.208 174.265C155.825 174.248 156.437 174.374 156.998 174.631C157.558 174.889 158.051 175.272 158.438 175.751C158.605 175.958 158.751 176.181 158.875 176.416C159.242 177.113 159.392 177.904 159.306 178.686L156.055 209.019L151.128 217.34Z" fill="#287FE4"/>
<path d="M153.901 174.726L150.376 207.607L149.111 207.472L152.52 175.67C152.904 175.257 153.376 174.934 153.901 174.726Z" fill="#1F1F1F"/>
<path d="M158.705 176.505L155.316 208.133L154.05 207.998L157.567 175.185C157.837 175.381 158.08 175.612 158.289 175.871C158.448 176.068 158.587 176.281 158.705 176.505Z" fill="#1F1F1F"/>
<path d="M156.474 174.632L152.911 207.877L151.646 207.742L155.213 174.456C155.383 174.451 155.553 174.457 155.722 174.475C155.977 174.503 156.229 174.555 156.474 174.632Z" fill="#1F1F1F"/>
<path d="M152.167 215.212L151.177 216.883L150.162 213.834C150.713 213.82 151.517 214.354 152.167 215.212Z" fill="#1F1F1F"/>
<path d="M481.224 206.538C480.877 207.143 480.414 207.674 479.86 208.1C479.307 208.527 478.675 208.841 478.001 209.024C476.638 209.394 475.183 209.209 473.957 208.511C472.731 207.812 471.833 206.656 471.462 205.298C471.091 203.94 471.276 202.491 471.977 201.269C471.989 201.248 472.001 201.227 472.013 201.207C472.162 200.958 472.33 200.721 472.515 200.498L468.035 168.676L467.901 167.723L466.991 161.229L466.856 160.294L467.352 160.317L476.032 160.712L478.36 160.817L478.651 166.74L480.302 200.044C481.165 200.867 481.725 201.954 481.892 203.132C482.059 204.31 481.824 205.509 481.224 206.538Z" fill="#EEC0B2"/>
<path d="M467.926 168.011L478.948 167.004C479.52 166.95 480.047 166.673 480.415 166.233C480.782 165.794 480.961 165.227 480.911 164.657L478.869 141.816C478.672 139.616 477.606 137.584 475.906 136.167C474.205 134.75 472.01 134.065 469.802 134.261C467.595 134.458 465.556 135.52 464.134 137.214C462.712 138.909 462.025 141.097 462.222 143.297C462.236 143.454 462.254 143.611 462.277 143.767L465.582 166.171C465.658 166.685 465.917 167.154 466.311 167.493C466.704 167.832 467.207 168.02 467.728 168.02C467.794 168.022 467.86 168.018 467.926 168.011Z" fill="#F17900"/>
<path d="M476.281 149.558C477.395 146.411 477.447 142.988 476.428 139.809C475.408 136.63 473.374 133.871 470.634 131.951C466.478 129.117 460.791 128.1 454.666 135.366C447.254 144.237 441.967 154.675 439.207 165.886L464.291 169.955C464.291 169.955 472.821 159.564 476.281 149.558Z" fill="#F17900"/>
<path d="M435.712 313.262H428.56L425.158 285.772H435.713L435.712 313.262Z" fill="#EEC0B2"/>
<path d="M414.769 319.879H437.246V311.225H423.453C421.15 311.225 418.941 312.137 417.313 313.76C415.684 315.382 414.769 317.584 414.769 319.879Z" fill="#2C3143"/>
<path d="M494.508 307.046L487.718 309.283L475.83 284.246L485.852 280.945L494.508 307.046Z" fill="#EEC0B2"/>
<path d="M476.707 319.879L498.048 312.849L495.322 304.633L482.227 308.946C480.04 309.666 478.23 311.223 477.194 313.273C476.159 315.323 475.984 317.7 476.707 319.879Z" fill="#2C3143"/>
<path d="M460.535 124.743C468.447 124.743 474.862 118.351 474.862 110.466C474.862 102.58 468.447 96.1877 460.535 96.1877C452.622 96.1877 446.207 102.58 446.207 110.466C446.207 118.351 452.622 124.743 460.535 124.743Z" fill="#EEC0B2"/>
<path d="M447.99 305.61L454.631 261.926C454.702 261.46 454.933 261.033 455.285 260.718C455.637 260.403 456.088 260.219 456.561 260.199C457.033 260.178 457.499 260.322 457.877 260.605C458.255 260.888 458.523 261.294 458.634 261.752L468.748 303.382C468.907 304.019 469.3 304.575 469.849 304.939C470.398 305.303 471.064 305.449 471.716 305.349L499.614 300.881C499.984 300.822 500.337 300.685 500.649 300.478C500.961 300.272 501.226 300.001 501.424 299.685C501.623 299.368 501.751 299.013 501.8 298.643C501.85 298.272 501.819 297.896 501.71 297.539L465.333 178.019C465.229 177.679 465.217 177.319 465.297 176.973L466.508 171.741C466.641 171.174 466.58 170.579 466.334 170.05C466.088 169.522 465.671 169.091 465.151 168.826C460.197 166.307 447.651 161.071 438.182 166.807C437.875 166.993 437.609 167.241 437.401 167.533C437.192 167.826 437.046 168.157 436.97 168.508L408.552 301.613C408.475 301.975 408.475 302.349 408.554 302.711C408.632 303.073 408.787 303.414 409.007 303.711C409.228 304.009 409.509 304.257 409.833 304.438C410.157 304.62 410.515 304.73 410.885 304.763L445.16 307.822C445.238 307.829 445.316 307.833 445.394 307.833C446.021 307.832 446.628 307.607 447.104 307.199C447.579 306.791 447.893 306.227 447.988 305.609L447.99 305.61Z" fill="#2C3143"/>
<path d="M470.035 100.378C468.955 99.7305 467.996 98.9003 467.203 97.9247C466.811 97.4318 466.553 96.8466 466.454 96.2255C466.355 95.6045 466.418 94.9684 466.637 94.3787C467.361 92.787 469.512 92.2859 471.179 92.826C472.846 93.366 474.133 94.6699 475.351 95.9262C476.424 97.0307 477.528 98.1887 478.035 99.6414C478.542 101.094 478.282 102.936 477.016 103.818C475.774 104.683 473.987 104.329 472.793 103.4C471.665 102.384 470.765 101.142 470.153 99.7554L470.035 100.378Z" fill="#2C3143"/>
<path d="M474.888 96.3098C474.967 92.2871 479.568 89.402 483.543 90.1153C487.517 90.8286 490.571 94.2049 492.1 97.9288C495.331 105.797 492.906 114.775 489.793 122.693C486.68 130.611 482.828 138.644 483.282 147.134C483.59 151.722 485.135 156.143 487.755 159.929C490.375 163.715 493.972 166.725 498.166 168.642C493.682 170.668 488.321 168.576 484.552 165.417C476.182 158.404 472.952 145.916 476.875 135.744C478.809 130.727 482.22 126.434 484.882 121.76C487.544 117.086 489.498 111.576 488.123 106.379C486.748 101.181 480.898 96.9737 475.897 98.9845L474.888 96.3098Z" fill="#2C3143"/>
<path d="M459.675 116.801C460.924 114.698 462.184 111.937 459.902 110.098C459.405 109.717 458.837 109.438 458.231 109.278C457.625 109.118 456.993 109.081 456.373 109.168C453.799 109.477 450.996 109.605 448.505 108.673C447.57 108.352 446.71 107.848 445.975 107.19C445.24 106.532 444.645 105.733 444.226 104.841C442.942 101.805 444.55 98.1143 447.239 96.1948C448.884 95.0631 450.827 94.4406 452.826 94.4054C454.824 94.3701 456.789 94.9236 458.473 95.9966C461.955 94.4636 466.18 95.1455 469.344 97.2557C472.508 99.3659 474.673 102.745 475.849 106.353C476.932 109.459 477.119 112.806 476.387 116.012C475.799 118.243 474.679 120.299 473.124 122.007C471.569 123.715 469.624 125.024 467.453 125.824C466.608 126.156 465.689 126.262 464.79 126.129C463.891 125.996 463.043 125.631 462.33 125.068C461.172 124.033 460.283 122.734 459.738 121.282C459.262 119.691 459.009 117.925 459.675 116.801Z" fill="#2C3143"/>
<path d="M417.172 129.542C417.244 129.855 417.291 130.174 417.312 130.495L442.37 144.901L448.461 141.407L454.954 149.878L444.775 157.108C443.952 157.693 442.962 157.995 441.952 157.971C440.942 157.946 439.968 157.596 439.175 156.972L413.333 136.658C412.166 137.088 410.896 137.155 409.691 136.848C408.485 136.542 407.402 135.877 406.586 134.942C405.769 134.007 405.257 132.846 405.118 131.614C404.98 130.382 405.221 129.137 405.81 128.045C406.398 126.953 407.307 126.066 408.414 125.501C409.521 124.936 410.775 124.72 412.008 124.883C413.241 125.045 414.396 125.578 415.318 126.41C416.239 127.242 416.885 128.335 417.169 129.542L417.172 129.542Z" fill="#EEC0B2"/>
<path d="M443.208 145.584L451.307 156.044C451.538 156.341 451.83 156.586 452.164 156.76C452.497 156.935 452.865 157.036 453.241 157.057C453.617 157.077 453.994 157.017 454.345 156.88C454.695 156.742 455.012 156.531 455.274 156.261L464.442 146.773C465.214 146.205 465.865 145.49 466.358 144.67C466.852 143.85 467.178 142.942 467.319 141.996C467.459 141.05 467.411 140.086 467.177 139.159C466.943 138.232 466.528 137.36 465.955 136.593C465.383 135.826 464.664 135.18 463.84 134.69C463.016 134.2 462.103 133.878 461.153 133.74C460.204 133.603 459.237 133.654 458.307 133.889C457.378 134.125 456.504 134.542 455.736 135.114C455.657 135.173 455.578 135.234 455.502 135.296L444.003 141.703C443.674 141.886 443.388 142.139 443.166 142.442C442.943 142.746 442.789 143.093 442.713 143.462C442.638 143.83 442.643 144.21 442.728 144.576C442.813 144.943 442.976 145.286 443.207 145.584H443.208Z" fill="#F17900"/>
<path d="M133.735 312.369L141.509 312.369L145.208 282.486L133.734 282.487L133.735 312.369Z" fill="#EEC0B2"/>
<path d="M131.752 309.84L147.062 309.839H147.063C149.651 309.839 152.132 310.864 153.962 312.687C155.792 314.51 156.82 316.983 156.82 319.562V319.878L131.753 319.879L131.752 309.84Z" fill="#2C3143"/>
<path d="M73.2034 309.016L80.8901 310.174L89.0296 281.178L78.9522 279.469L73.2034 309.016Z" fill="#EEC0B2"/>
<path d="M71.6217 306.219L86.7599 308.499C89.3183 308.885 91.619 310.267 93.1546 312.343C94.6903 314.418 95.3358 317.017 94.9491 319.566L94.9017 319.879L70.1162 316.145L71.6217 306.219Z" fill="#2C3143"/>
<path d="M97.1727 164.279L105.804 166.532L105.23 180.479L105.159 205.87C106.009 206.457 106.661 207.286 107.028 208.249C107.395 209.213 107.46 210.265 107.214 211.265C106.968 212.266 106.423 213.169 105.651 213.855C104.88 214.54 103.917 214.976 102.891 215.104C101.865 215.233 100.824 215.048 99.906 214.574C98.9879 214.1 98.2357 213.36 97.749 212.451C97.2624 211.541 97.0641 210.506 97.1806 209.483C97.297 208.459 97.7226 207.494 98.401 206.717L95.7485 181.232L97.1727 164.279Z" fill="#EEC0B2"/>
<path d="M95.6703 148.304C95.718 146.957 96.1541 145.651 96.9265 144.544C97.6989 143.436 98.775 142.574 100.026 142.06C101.197 141.538 102.496 141.368 103.763 141.571C105.03 141.774 106.209 142.341 107.157 143.203C107.838 143.809 108.379 144.557 108.74 145.393C109.102 146.229 109.276 147.133 109.251 148.043C109.273 156.213 107.423 168.122 107.404 168.241L107.374 168.43L94.7576 172.664L95.6703 148.304Z" fill="#F17900"/>
<path d="M118.23 171.496L137.527 166.518L146.448 196.457L146.765 307.992L132.008 307.9L125.839 217.627L86.5238 301.041L70.6709 299.145L105.23 209.728C105.23 209.728 103.328 193.929 109.352 186.03L108.084 177.815L118.23 171.496Z" fill="#2C3143"/>
<path d="M105.217 178.945C104.948 178.618 104.752 178.237 104.643 177.828C104.534 177.419 104.515 176.991 104.586 176.574L95.7841 150.258C95.3732 149.028 95.3295 147.705 95.6584 146.451C95.9874 145.196 96.6747 144.064 97.6371 143.192L101.458 139.73L104.048 129.408L118.931 133.033L117.705 137.921L124.441 136.701L138.629 168.192L108.973 180.004L107.512 180.027C107.073 180.028 106.639 179.931 106.242 179.744C105.845 179.557 105.495 179.284 105.217 178.945Z" fill="#F17900"/>
<path d="M125.876 156.725L134.38 154.032L141.375 166.125L154.935 187.622C155.968 187.665 156.964 188.019 157.791 188.637C158.617 189.256 159.236 190.11 159.565 191.087C159.895 192.064 159.918 193.117 159.634 194.108C159.349 195.099 158.769 195.98 157.971 196.635C157.173 197.29 156.194 197.688 155.164 197.777C154.133 197.865 153.101 197.64 152.202 197.131C151.303 196.622 150.58 195.853 150.129 194.925C149.678 193.998 149.521 192.956 149.677 191.938L133.766 171.812L125.876 156.725Z" fill="#EEC0B2"/>
<path d="M116.037 144.025C115.355 142.86 115.023 141.525 115.082 140.177C115.141 138.83 115.588 137.528 116.369 136.427C117.079 135.363 118.086 134.527 119.265 134.024C120.445 133.521 121.746 133.372 123.009 133.595C123.91 133.745 124.767 134.088 125.522 134.602C126.276 135.116 126.908 135.788 127.375 136.571C131.776 143.463 136.6 154.514 136.648 154.624L136.724 154.8L128.332 165.099L116.037 144.025Z" fill="#F17900"/>
<path d="M115.06 127.487C121.591 127.487 126.885 122.211 126.885 115.702C126.885 109.194 121.591 103.918 115.06 103.918C108.529 103.918 103.234 109.194 103.234 115.702C103.234 122.211 108.529 127.487 115.06 127.487Z" fill="#EEC0B2"/>
<path d="M94.1615 110.731C100.453 110.731 105.553 105.649 105.553 99.3796C105.553 93.1103 100.453 88.028 94.1615 88.028C87.8704 88.028 82.7705 93.1103 82.7705 99.3796C82.7705 105.649 87.8704 110.731 94.1615 110.731Z" fill="#2C3143"/>
<path d="M84.3364 108.78C85.8108 109.841 87.5189 110.536 89.3178 110.805C91.1168 111.074 92.9543 110.91 94.6766 110.327C96.3989 109.743 97.9559 108.757 99.2173 107.451C100.479 106.145 101.408 104.556 101.927 102.819C101.731 104.376 101.212 105.876 100.405 107.223C99.5977 108.57 98.5188 109.736 97.2365 110.647C95.9542 111.558 94.4963 112.194 92.9549 112.515C91.4135 112.836 89.822 112.835 88.281 112.512C86.7399 112.189 85.2828 111.551 84.0016 110.639C82.7203 109.727 81.6428 108.56 80.8371 107.211C80.0313 105.863 79.5149 104.363 79.3202 102.806C79.1256 101.248 79.2571 99.6678 79.7064 98.1637C79.4512 100.184 79.7464 102.236 80.5611 104.104C81.3757 105.972 82.6798 107.587 84.3364 108.78Z" fill="#2C3143"/>
<path d="M129.29 108.792C127.302 105.244 126.541 103.762 123.977 101.605C121.709 99.6969 118.92 99.1366 116.671 100.944C114.01 99.7986 111.049 99.5388 108.228 100.204C105.407 100.868 102.876 102.422 101.011 104.635C99.1471 106.847 98.0486 109.599 97.879 112.483C97.7095 115.367 98.4779 118.229 100.07 120.643C101.663 123.057 103.994 124.895 106.718 125.883C109.442 126.872 112.413 126.958 115.19 126.13C117.967 125.302 120.402 123.603 122.134 121.286C123.865 118.968 124.8 116.156 124.799 113.268C124.797 112.76 124.767 112.253 124.708 111.75C126.663 111.476 127.335 109.066 129.29 108.792Z" fill="#2C3143"/>
<path d="M244.96 320H0.641256C0.471184 320 0.308078 319.933 0.187819 319.813C0.0675602 319.693 0 319.53 0 319.361C0 319.191 0.0675602 319.029 0.187819 318.909C0.308078 318.789 0.471184 318.722 0.641256 318.722H244.96C245.13 318.722 245.293 318.789 245.413 318.909C245.533 319.029 245.601 319.191 245.601 319.361C245.601 319.53 245.533 319.693 245.413 319.813C245.293 319.933 245.13 320 244.96 320Z" fill="#F3F3F3"/>
<path d="M571.359 320H327.04C326.87 320 326.707 319.933 326.587 319.813C326.467 319.693 326.399 319.53 326.399 319.361C326.399 319.191 326.467 319.029 326.587 318.909C326.707 318.789 326.87 318.722 327.04 318.722H571.359C571.529 318.722 571.692 318.789 571.812 318.909C571.933 319.029 572 319.191 572 319.361C572 319.53 571.933 319.693 571.812 319.813C571.692 319.933 571.529 320 571.359 320Z" fill="#F3F3F3"/>
<path d="M252.845 12.6211H251.563V206.275H252.845V12.6211Z" fill="#CBCBCB"/>
</g>
<path d="M129.417 375H124.355L133.572 348.818H139.427L148.657 375H143.595L136.602 354.188H136.397L129.417 375ZM129.583 364.734H143.39V368.544H129.583V364.734ZM158.591 375.345C157.048 375.345 155.667 374.949 154.449 374.156C153.23 373.364 152.267 372.213 151.559 370.705C150.852 369.196 150.498 367.364 150.498 365.207C150.498 363.026 150.856 361.185 151.572 359.685C152.297 358.176 153.272 357.038 154.5 356.271C155.727 355.496 157.095 355.108 158.603 355.108C159.754 355.108 160.7 355.304 161.441 355.696C162.183 356.08 162.771 356.544 163.206 357.089C163.64 357.626 163.977 358.134 164.216 358.611H164.407V348.818H169.048V375H164.497V371.906H164.216C163.977 372.384 163.632 372.891 163.18 373.428C162.728 373.956 162.132 374.408 161.39 374.783C160.649 375.158 159.716 375.345 158.591 375.345ZM159.882 371.548C160.862 371.548 161.697 371.284 162.387 370.756C163.078 370.219 163.602 369.473 163.96 368.518C164.318 367.564 164.497 366.452 164.497 365.182C164.497 363.912 164.318 362.808 163.96 361.871C163.61 360.933 163.091 360.205 162.4 359.685C161.718 359.165 160.879 358.905 159.882 358.905C158.85 358.905 157.99 359.173 157.299 359.71C156.609 360.247 156.089 360.989 155.74 361.935C155.39 362.881 155.216 363.963 155.216 365.182C155.216 366.409 155.39 367.504 155.74 368.467C156.098 369.422 156.622 370.176 157.312 370.73C158.011 371.276 158.868 371.548 159.882 371.548ZM181.266 375.345C179.724 375.345 178.343 374.949 177.124 374.156C175.906 373.364 174.942 372.213 174.235 370.705C173.528 369.196 173.174 367.364 173.174 365.207C173.174 363.026 173.532 361.185 174.248 359.685C174.972 358.176 175.948 357.038 177.175 356.271C178.403 355.496 179.771 355.108 181.279 355.108C182.43 355.108 183.376 355.304 184.117 355.696C184.859 356.08 185.447 356.544 185.881 357.089C186.316 357.626 186.653 358.134 186.891 358.611H187.083V348.818H191.724V375H187.173V371.906H186.891C186.653 372.384 186.308 372.891 185.856 373.428C185.404 373.956 184.808 374.408 184.066 374.783C183.325 375.158 182.391 375.345 181.266 375.345ZM182.558 371.548C183.538 371.548 184.373 371.284 185.063 370.756C185.754 370.219 186.278 369.473 186.636 368.518C186.994 367.564 187.173 366.452 187.173 365.182C187.173 363.912 186.994 362.808 186.636 361.871C186.286 360.933 185.766 360.205 185.076 359.685C184.394 359.165 183.555 358.905 182.558 358.905C181.526 358.905 180.665 359.173 179.975 359.71C179.285 360.247 178.765 360.989 178.415 361.935C178.066 362.881 177.891 363.963 177.891 365.182C177.891 366.409 178.066 367.504 178.415 368.467C178.773 369.422 179.298 370.176 179.988 370.73C180.687 371.276 181.543 371.548 182.558 371.548ZM208.461 382.364C207.831 382.364 207.247 382.313 206.71 382.21C206.181 382.116 205.76 382.006 205.444 381.878L206.518 378.273C207.191 378.469 207.792 378.563 208.321 378.554C208.849 378.545 209.314 378.379 209.714 378.055C210.123 377.74 210.468 377.212 210.75 376.47L211.146 375.409L204.025 355.364H208.934L213.46 370.193H213.664L218.203 355.364H223.125L215.262 377.378C214.896 378.418 214.41 379.308 213.805 380.05C213.2 380.8 212.458 381.371 211.581 381.763C210.711 382.163 209.672 382.364 208.461 382.364ZM234.224 375.384C232.307 375.384 230.645 374.962 229.239 374.118C227.832 373.274 226.741 372.094 225.966 370.577C225.199 369.06 224.815 367.287 224.815 365.259C224.815 363.23 225.199 361.453 225.966 359.928C226.741 358.402 227.832 357.217 229.239 356.374C230.645 355.53 232.307 355.108 234.224 355.108C236.142 355.108 237.804 355.53 239.21 356.374C240.616 357.217 241.703 358.402 242.47 359.928C243.246 361.453 243.634 363.23 243.634 365.259C243.634 367.287 243.246 369.06 242.47 370.577C241.703 372.094 240.616 373.274 239.21 374.118C237.804 374.962 236.142 375.384 234.224 375.384ZM234.25 371.676C235.29 371.676 236.159 371.391 236.858 370.82C237.557 370.24 238.077 369.464 238.418 368.493C238.767 367.521 238.942 366.439 238.942 365.246C238.942 364.044 238.767 362.957 238.418 361.986C238.077 361.006 237.557 360.226 236.858 359.646C236.159 359.067 235.29 358.777 234.25 358.777C233.185 358.777 232.298 359.067 231.591 359.646C230.892 360.226 230.368 361.006 230.018 361.986C229.678 362.957 229.507 364.044 229.507 365.246C229.507 366.439 229.678 367.521 230.018 368.493C230.368 369.464 230.892 370.24 231.591 370.82C232.298 371.391 233.185 371.676 234.25 371.676ZM260.077 366.741V355.364H264.705V375H260.218V371.51H260.013C259.57 372.609 258.841 373.509 257.827 374.207C256.821 374.906 255.581 375.256 254.107 375.256C252.82 375.256 251.682 374.97 250.694 374.399C249.713 373.82 248.946 372.98 248.392 371.881C247.838 370.773 247.561 369.435 247.561 367.866V355.364H252.189V367.151C252.189 368.395 252.53 369.384 253.212 370.116C253.894 370.849 254.789 371.216 255.897 371.216C256.578 371.216 257.239 371.05 257.878 370.717C258.517 370.385 259.042 369.891 259.451 369.234C259.868 368.57 260.077 367.739 260.077 366.741ZM269.464 375V355.364H273.951V358.636H274.156C274.513 357.503 275.127 356.629 275.996 356.016C276.874 355.393 277.876 355.082 279.001 355.082C279.256 355.082 279.542 355.095 279.857 355.121C280.181 355.138 280.45 355.168 280.663 355.21V359.467C280.467 359.399 280.156 359.339 279.729 359.288C279.312 359.229 278.907 359.199 278.515 359.199C277.671 359.199 276.913 359.382 276.239 359.749C275.575 360.107 275.05 360.605 274.667 361.244C274.283 361.884 274.092 362.621 274.092 363.456V375H269.464ZM302.613 355.364V358.943H291.005V355.364H302.613ZM293.907 375V353.51C293.907 352.189 294.18 351.089 294.725 350.212C295.279 349.334 296.021 348.678 296.95 348.243C297.879 347.808 298.91 347.591 300.043 347.591C300.844 347.591 301.556 347.655 302.178 347.783C302.8 347.911 303.261 348.026 303.559 348.128L302.638 351.707C302.442 351.648 302.195 351.588 301.897 351.528C301.599 351.46 301.266 351.426 300.9 351.426C300.039 351.426 299.43 351.635 299.072 352.053C298.722 352.462 298.548 353.05 298.548 353.817V375H293.907ZM306.237 375V355.364H310.865V375H306.237ZM308.564 352.577C307.831 352.577 307.2 352.334 306.672 351.848C306.143 351.354 305.879 350.761 305.879 350.071C305.879 349.372 306.143 348.78 306.672 348.294C307.2 347.8 307.831 347.553 308.564 347.553C309.305 347.553 309.936 347.8 310.456 348.294C310.984 348.78 311.249 349.372 311.249 350.071C311.249 350.761 310.984 351.354 310.456 351.848C309.936 352.334 309.305 352.577 308.564 352.577ZM315.624 375V355.364H320.111V358.636H320.316C320.674 357.503 321.287 356.629 322.157 356.016C323.034 355.393 324.036 355.082 325.161 355.082C325.417 355.082 325.702 355.095 326.017 355.121C326.341 355.138 326.61 355.168 326.823 355.21V359.467C326.627 359.399 326.316 359.339 325.89 359.288C325.472 359.229 325.067 359.199 324.675 359.199C323.831 359.199 323.073 359.382 322.4 359.749C321.735 360.107 321.211 360.605 320.827 361.244C320.444 361.884 320.252 362.621 320.252 363.456V375H315.624ZM345.417 360.554L341.199 361.014C341.079 360.588 340.87 360.188 340.572 359.812C340.282 359.438 339.89 359.135 339.396 358.905C338.902 358.675 338.297 358.56 337.581 358.56C336.618 358.56 335.808 358.768 335.152 359.186C334.504 359.604 334.184 360.145 334.193 360.81C334.184 361.381 334.393 361.845 334.819 362.203C335.254 362.561 335.97 362.855 336.967 363.085L340.316 363.801C342.174 364.202 343.555 364.837 344.458 365.706C345.37 366.575 345.831 367.713 345.839 369.119C345.831 370.355 345.468 371.446 344.752 372.392C344.045 373.33 343.061 374.062 341.799 374.591C340.538 375.119 339.089 375.384 337.453 375.384C335.049 375.384 333.115 374.881 331.649 373.875C330.183 372.861 329.309 371.45 329.028 369.643L333.541 369.209C333.745 370.095 334.18 370.764 334.845 371.216C335.51 371.668 336.375 371.893 337.44 371.893C338.539 371.893 339.422 371.668 340.086 371.216C340.76 370.764 341.096 370.206 341.096 369.541C341.096 368.979 340.879 368.514 340.444 368.148C340.018 367.781 339.353 367.5 338.45 367.304L335.1 366.601C333.217 366.209 331.824 365.548 330.92 364.619C330.017 363.682 329.569 362.497 329.578 361.065C329.569 359.855 329.897 358.807 330.562 357.92C331.235 357.026 332.169 356.335 333.362 355.849C334.564 355.355 335.949 355.108 337.517 355.108C339.818 355.108 341.629 355.598 342.95 356.578C344.279 357.558 345.102 358.884 345.417 360.554ZM359.461 355.364V358.943H348.172V355.364H359.461ZM350.959 350.659H355.587V369.094C355.587 369.716 355.681 370.193 355.868 370.526C356.064 370.849 356.32 371.071 356.635 371.19C356.951 371.31 357.3 371.369 357.684 371.369C357.973 371.369 358.238 371.348 358.476 371.305C358.723 371.263 358.911 371.224 359.039 371.19L359.819 374.808C359.571 374.893 359.218 374.987 358.757 375.089C358.306 375.192 357.752 375.251 357.096 375.268C355.936 375.303 354.892 375.128 353.963 374.744C353.034 374.352 352.297 373.747 351.752 372.929C351.215 372.111 350.951 371.088 350.959 369.861V350.659ZM376.888 363.494V375H372.261V355.364H376.684V358.7H376.914C377.366 357.601 378.086 356.727 379.075 356.08C380.072 355.432 381.303 355.108 382.769 355.108C384.124 355.108 385.305 355.398 386.31 355.977C387.325 356.557 388.109 357.396 388.663 358.496C389.225 359.595 389.502 360.929 389.494 362.497V375H384.866V363.213C384.866 361.901 384.525 360.874 383.843 360.132C383.17 359.391 382.237 359.02 381.043 359.02C380.234 359.02 379.513 359.199 378.883 359.557C378.261 359.906 377.771 360.413 377.413 361.078C377.063 361.743 376.888 362.548 376.888 363.494ZM402.763 375.384C400.846 375.384 399.184 374.962 397.778 374.118C396.371 373.274 395.281 372.094 394.505 370.577C393.738 369.06 393.354 367.287 393.354 365.259C393.354 363.23 393.738 361.453 394.505 359.928C395.281 358.402 396.371 357.217 397.778 356.374C399.184 355.53 400.846 355.108 402.763 355.108C404.681 355.108 406.343 355.53 407.749 356.374C409.156 357.217 410.242 358.402 411.009 359.928C411.785 361.453 412.173 363.23 412.173 365.259C412.173 367.287 411.785 369.06 411.009 370.577C410.242 372.094 409.156 373.274 407.749 374.118C406.343 374.962 404.681 375.384 402.763 375.384ZM402.789 371.676C403.829 371.676 404.698 371.391 405.397 370.82C406.096 370.24 406.616 369.464 406.957 368.493C407.306 367.521 407.481 366.439 407.481 365.246C407.481 364.044 407.306 362.957 406.957 361.986C406.616 361.006 406.096 360.226 405.397 359.646C404.698 359.067 403.829 358.777 402.789 358.777C401.724 358.777 400.837 359.067 400.13 359.646C399.431 360.226 398.907 361.006 398.558 361.986C398.217 362.957 398.046 364.044 398.046 365.246C398.046 366.439 398.217 367.521 398.558 368.493C398.907 369.464 399.431 370.24 400.13 370.82C400.837 371.391 401.724 371.676 402.789 371.676ZM425.906 355.364V358.943H414.618V355.364H425.906ZM417.404 350.659H422.032V369.094C422.032 369.716 422.126 370.193 422.314 370.526C422.51 370.849 422.765 371.071 423.081 371.19C423.396 371.31 423.745 371.369 424.129 371.369C424.419 371.369 424.683 371.348 424.922 371.305C425.169 371.263 425.356 371.224 425.484 371.19L426.264 374.808C426.017 374.893 425.663 374.987 425.203 375.089C424.751 375.192 424.197 375.251 423.541 375.268C422.382 375.303 421.338 375.128 420.409 374.744C419.48 374.352 418.743 373.747 418.197 372.929C417.66 372.111 417.396 371.088 417.404 369.861V350.659ZM438.259 375.384C436.29 375.384 434.589 374.974 433.158 374.156C431.734 373.33 430.639 372.162 429.872 370.653C429.105 369.136 428.722 367.351 428.722 365.297C428.722 363.277 429.105 361.504 429.872 359.979C430.648 358.445 431.73 357.251 433.119 356.399C434.509 355.538 436.141 355.108 438.016 355.108C439.226 355.108 440.368 355.304 441.442 355.696C442.524 356.08 443.479 356.676 444.305 357.486C445.141 358.295 445.797 359.327 446.274 360.58C446.751 361.824 446.99 363.307 446.99 365.028V366.447H430.895V363.328H442.554C442.545 362.442 442.354 361.653 441.979 360.963C441.604 360.264 441.08 359.714 440.406 359.314C439.741 358.913 438.966 358.713 438.08 358.713C437.134 358.713 436.303 358.943 435.587 359.403C434.871 359.855 434.313 360.452 433.912 361.193C433.52 361.926 433.32 362.732 433.311 363.609V366.332C433.311 367.474 433.52 368.455 433.938 369.273C434.355 370.082 434.939 370.705 435.689 371.139C436.439 371.565 437.317 371.778 438.322 371.778C438.996 371.778 439.605 371.685 440.151 371.497C440.696 371.301 441.169 371.016 441.57 370.641C441.97 370.266 442.273 369.801 442.477 369.247L446.798 369.733C446.526 370.875 446.006 371.872 445.239 372.724C444.48 373.568 443.509 374.224 442.324 374.693C441.139 375.153 439.784 375.384 438.259 375.384Z" fill="#1F1F1F"/>
<path d="M152.151 400.017V398.455H163.061V400.017H158.487V413H156.725V400.017H152.151ZM168.401 413.227C167.417 413.227 166.552 412.993 165.809 412.524C165.07 412.055 164.493 411.4 164.076 410.557C163.664 409.714 163.458 408.729 163.458 407.602C163.458 406.466 163.664 405.474 164.076 404.626C164.493 403.779 165.07 403.121 165.809 402.652C166.552 402.183 167.417 401.949 168.401 401.949C169.386 401.949 170.248 402.183 170.987 402.652C171.73 403.121 172.308 403.779 172.72 404.626C173.136 405.474 173.345 406.466 173.345 407.602C173.345 408.729 173.136 409.714 172.72 410.557C172.308 411.4 171.73 412.055 170.987 412.524C170.248 412.993 169.386 413.227 168.401 413.227ZM168.401 411.722C169.15 411.722 169.765 411.53 170.248 411.146C170.731 410.763 171.088 410.259 171.32 409.634C171.552 409.009 171.669 408.331 171.669 407.602C171.669 406.873 171.552 406.194 171.32 405.564C171.088 404.934 170.731 404.425 170.248 404.037C169.765 403.649 169.15 403.455 168.401 403.455C167.653 403.455 167.038 403.649 166.555 404.037C166.072 404.425 165.714 404.934 165.482 405.564C165.25 406.194 165.134 406.873 165.134 407.602C165.134 408.331 165.25 409.009 165.482 409.634C165.714 410.259 166.072 410.763 166.555 411.146C167.038 411.53 167.653 411.722 168.401 411.722ZM185.96 413.227C184.937 413.227 184.057 412.986 183.318 412.503C182.579 412.02 182.011 411.355 181.613 410.507C181.216 409.66 181.017 408.691 181.017 407.602C181.017 406.494 181.22 405.517 181.628 404.669C182.04 403.817 182.613 403.152 183.346 402.673C184.085 402.19 184.947 401.949 185.932 401.949C186.699 401.949 187.39 402.091 188.006 402.375C188.621 402.659 189.125 403.057 189.518 403.568C189.911 404.08 190.155 404.676 190.25 405.358H188.574C188.446 404.861 188.162 404.42 187.721 404.037C187.286 403.649 186.699 403.455 185.96 403.455C185.307 403.455 184.734 403.625 184.241 403.966C183.754 404.302 183.372 404.778 183.098 405.393C182.828 406.004 182.693 406.722 182.693 407.545C182.693 408.388 182.826 409.122 183.091 409.747C183.361 410.372 183.739 410.857 184.227 411.203C184.72 411.549 185.297 411.722 185.96 411.722C186.396 411.722 186.791 411.646 187.146 411.494C187.501 411.343 187.802 411.125 188.048 410.841C188.294 410.557 188.47 410.216 188.574 409.818H190.25C190.155 410.462 189.921 411.042 189.547 411.558C189.177 412.07 188.687 412.477 188.077 412.78C187.47 413.078 186.765 413.227 185.96 413.227ZM192.7 413V402.091H194.319V403.739H194.433C194.632 403.199 194.992 402.761 195.513 402.425C196.033 402.089 196.621 401.92 197.274 401.92C197.397 401.92 197.551 401.923 197.736 401.928C197.92 401.932 198.06 401.939 198.155 401.949V403.653C198.098 403.639 197.968 403.618 197.764 403.589C197.565 403.556 197.354 403.54 197.132 403.54C196.602 403.54 196.128 403.651 195.711 403.874C195.3 404.091 194.973 404.394 194.731 404.783C194.495 405.166 194.376 405.604 194.376 406.097V413H192.7ZM204.383 413.227C203.332 413.227 202.425 412.995 201.663 412.531C200.906 412.062 200.321 411.409 199.909 410.571C199.502 409.728 199.298 408.748 199.298 407.631C199.298 406.513 199.502 405.528 199.909 404.676C200.321 403.819 200.894 403.152 201.628 402.673C202.366 402.19 203.228 401.949 204.213 401.949C204.781 401.949 205.342 402.044 205.896 402.233C206.45 402.422 206.954 402.73 207.409 403.156C207.863 403.578 208.226 404.136 208.496 404.832C208.765 405.528 208.9 406.385 208.9 407.403V408.114H200.491V406.665H207.196C207.196 406.049 207.073 405.5 206.827 405.017C206.585 404.534 206.239 404.153 205.79 403.874C205.345 403.594 204.819 403.455 204.213 403.455C203.545 403.455 202.968 403.62 202.48 403.952C201.997 404.278 201.625 404.705 201.365 405.23C201.104 405.756 200.974 406.319 200.974 406.92V407.886C200.974 408.71 201.116 409.409 201.4 409.982C201.689 410.55 202.089 410.983 202.601 411.281C203.112 411.575 203.706 411.722 204.383 411.722C204.824 411.722 205.221 411.66 205.577 411.537C205.936 411.409 206.247 411.22 206.507 410.969C206.767 410.713 206.969 410.396 207.111 410.017L208.73 410.472C208.559 411.021 208.273 411.504 207.871 411.92C207.468 412.332 206.971 412.654 206.379 412.886C205.787 413.114 205.122 413.227 204.383 413.227ZM214.66 413.256C213.969 413.256 213.342 413.125 212.778 412.865C212.215 412.6 211.767 412.219 211.436 411.722C211.104 411.22 210.939 410.614 210.939 409.903C210.939 409.278 211.062 408.772 211.308 408.384C211.554 407.991 211.883 407.683 212.295 407.46C212.707 407.238 213.162 407.072 213.659 406.963C214.161 406.849 214.665 406.759 215.172 406.693C215.835 406.608 216.372 406.544 216.784 406.501C217.201 406.454 217.504 406.376 217.693 406.267C217.887 406.158 217.984 405.969 217.984 405.699V405.642C217.984 404.941 217.792 404.397 217.409 404.009C217.03 403.62 216.455 403.426 215.683 403.426C214.883 403.426 214.256 403.601 213.801 403.952C213.346 404.302 213.027 404.676 212.842 405.074L211.251 404.506C211.535 403.843 211.914 403.327 212.388 402.957C212.866 402.583 213.387 402.323 213.95 402.176C214.518 402.025 215.077 401.949 215.626 401.949C215.977 401.949 216.379 401.991 216.834 402.077C217.293 402.157 217.736 402.325 218.162 402.581C218.593 402.837 218.95 403.223 219.234 403.739C219.518 404.255 219.66 404.946 219.66 405.812V413H217.984V411.523H217.899C217.785 411.759 217.596 412.013 217.331 412.283C217.066 412.553 216.713 412.782 216.273 412.972C215.832 413.161 215.295 413.256 214.66 413.256ZM214.916 411.75C215.579 411.75 216.138 411.62 216.592 411.359C217.051 411.099 217.397 410.763 217.629 410.351C217.866 409.939 217.984 409.506 217.984 409.051V407.517C217.913 407.602 217.757 407.68 217.515 407.751C217.279 407.818 217.004 407.877 216.692 407.929C216.384 407.976 216.083 408.019 215.79 408.057C215.501 408.09 215.266 408.118 215.086 408.142C214.651 408.199 214.244 408.291 213.865 408.419C213.491 408.542 213.188 408.729 212.956 408.98C212.729 409.226 212.615 409.562 212.615 409.989C212.615 410.571 212.83 411.011 213.261 411.31C213.697 411.603 214.248 411.75 214.916 411.75ZM227.464 402.091V403.511H221.811V402.091H227.464ZM223.458 399.477H225.134V409.875C225.134 410.348 225.203 410.704 225.34 410.94C225.482 411.172 225.662 411.329 225.88 411.409C226.103 411.485 226.337 411.523 226.583 411.523C226.768 411.523 226.919 411.513 227.038 411.494C227.156 411.471 227.251 411.452 227.322 411.438L227.663 412.943C227.549 412.986 227.391 413.028 227.187 413.071C226.983 413.118 226.725 413.142 226.413 413.142C225.939 413.142 225.475 413.04 225.021 412.837C224.571 412.633 224.197 412.323 223.899 411.906C223.605 411.49 223.458 410.964 223.458 410.33V399.477ZM234.442 413.227C233.391 413.227 232.484 412.995 231.722 412.531C230.964 412.062 230.379 411.409 229.968 410.571C229.56 409.728 229.357 408.748 229.357 407.631C229.357 406.513 229.56 405.528 229.968 404.676C230.379 403.819 230.952 403.152 231.686 402.673C232.425 402.19 233.287 401.949 234.271 401.949C234.84 401.949 235.401 402.044 235.955 402.233C236.509 402.422 237.013 402.73 237.468 403.156C237.922 403.578 238.284 404.136 238.554 404.832C238.824 405.528 238.959 406.385 238.959 407.403V408.114H230.55V406.665H237.254C237.254 406.049 237.131 405.5 236.885 405.017C236.644 404.534 236.298 404.153 235.848 403.874C235.403 403.594 234.878 403.455 234.271 403.455C233.604 403.455 233.026 403.62 232.539 403.952C232.056 404.278 231.684 404.705 231.423 405.23C231.163 405.756 231.033 406.319 231.033 406.92V407.886C231.033 408.71 231.175 409.409 231.459 409.982C231.748 410.55 232.148 410.983 232.659 411.281C233.171 411.575 233.765 411.722 234.442 411.722C234.882 411.722 235.28 411.66 235.635 411.537C235.995 411.409 236.305 411.22 236.566 410.969C236.826 410.713 237.027 410.396 237.169 410.017L238.789 410.472C238.618 411.021 238.332 411.504 237.929 411.92C237.527 412.332 237.03 412.654 236.438 412.886C235.846 413.114 235.181 413.227 234.442 413.227ZM250.344 413.256C249.653 413.256 249.025 413.125 248.462 412.865C247.898 412.6 247.451 412.219 247.119 411.722C246.788 411.22 246.622 410.614 246.622 409.903C246.622 409.278 246.745 408.772 246.992 408.384C247.238 407.991 247.567 407.683 247.979 407.46C248.391 407.238 248.845 407.072 249.343 406.963C249.844 406.849 250.349 406.759 250.855 406.693C251.518 406.608 252.056 406.544 252.468 406.501C252.884 406.454 253.187 406.376 253.377 406.267C253.571 406.158 253.668 405.969 253.668 405.699V405.642C253.668 404.941 253.476 404.397 253.093 404.009C252.714 403.62 252.138 403.426 251.367 403.426C250.566 403.426 249.939 403.601 249.485 403.952C249.03 404.302 248.71 404.676 248.526 405.074L246.935 404.506C247.219 403.843 247.598 403.327 248.071 402.957C248.549 402.583 249.07 402.323 249.634 402.176C250.202 402.025 250.761 401.949 251.31 401.949C251.66 401.949 252.063 401.991 252.517 402.077C252.977 402.157 253.419 402.325 253.845 402.581C254.276 402.837 254.634 403.223 254.918 403.739C255.202 404.255 255.344 404.946 255.344 405.812V413H253.668V411.523H253.583C253.469 411.759 253.28 412.013 253.014 412.283C252.749 412.553 252.396 412.782 251.956 412.972C251.516 413.161 250.978 413.256 250.344 413.256ZM250.6 411.75C251.262 411.75 251.821 411.62 252.276 411.359C252.735 411.099 253.081 410.763 253.313 410.351C253.549 409.939 253.668 409.506 253.668 409.051V407.517C253.597 407.602 253.441 407.68 253.199 407.751C252.962 407.818 252.688 407.877 252.375 407.929C252.067 407.976 251.767 408.019 251.473 408.057C251.184 408.09 250.95 408.118 250.77 408.142C250.334 408.199 249.927 408.291 249.548 408.419C249.174 408.542 248.871 408.729 248.639 408.98C248.412 409.226 248.298 409.562 248.298 409.989C248.298 410.571 248.514 411.011 248.945 411.31C249.38 411.603 249.932 411.75 250.6 411.75ZM265.704 406.438V413H264.028V402.091H265.648V403.795H265.79C266.045 403.241 266.434 402.796 266.954 402.46C267.475 402.119 268.148 401.949 268.971 401.949C269.71 401.949 270.356 402.1 270.91 402.403C271.464 402.702 271.895 403.156 272.203 403.767C272.511 404.373 272.665 405.14 272.665 406.068V413H270.988V406.182C270.988 405.325 270.766 404.657 270.321 404.179C269.876 403.696 269.265 403.455 268.488 403.455C267.953 403.455 267.475 403.571 267.054 403.803C266.637 404.035 266.308 404.373 266.067 404.818C265.825 405.263 265.704 405.803 265.704 406.438ZM280.159 413.227C279.174 413.227 278.31 412.993 277.567 412.524C276.828 412.055 276.251 411.4 275.834 410.557C275.422 409.714 275.216 408.729 275.216 407.602C275.216 406.466 275.422 405.474 275.834 404.626C276.251 403.779 276.828 403.121 277.567 402.652C278.31 402.183 279.174 401.949 280.159 401.949C281.144 401.949 282.006 402.183 282.744 402.652C283.488 403.121 284.066 403.779 284.477 404.626C284.894 405.474 285.102 406.466 285.102 407.602C285.102 408.729 284.894 409.714 284.477 410.557C284.066 411.4 283.488 412.055 282.744 412.524C282.006 412.993 281.144 413.227 280.159 413.227ZM280.159 411.722C280.907 411.722 281.523 411.53 282.006 411.146C282.489 410.763 282.846 410.259 283.078 409.634C283.31 409.009 283.426 408.331 283.426 407.602C283.426 406.873 283.31 406.194 283.078 405.564C282.846 404.934 282.489 404.425 282.006 404.037C281.523 403.649 280.907 403.455 280.159 403.455C279.411 403.455 278.796 403.649 278.313 404.037C277.83 404.425 277.472 404.934 277.24 405.564C277.008 406.194 276.892 406.873 276.892 407.602C276.892 408.331 277.008 409.009 277.24 409.634C277.472 410.259 277.83 410.763 278.313 411.146C278.796 411.53 279.411 411.722 280.159 411.722ZM292.405 402.091V403.511H286.752V402.091H292.405ZM288.4 399.477H290.076V409.875C290.076 410.348 290.144 410.704 290.282 410.94C290.424 411.172 290.604 411.329 290.822 411.409C291.044 411.485 291.278 411.523 291.525 411.523C291.709 411.523 291.861 411.513 291.979 411.494C292.098 411.471 292.192 411.452 292.263 411.438L292.604 412.943C292.491 412.986 292.332 413.028 292.128 413.071C291.925 413.118 291.667 413.142 291.354 413.142C290.881 413.142 290.417 413.04 289.962 412.837C289.512 412.633 289.138 412.323 288.84 411.906C288.546 411.49 288.4 410.964 288.4 410.33V399.477ZM299.383 413.227C298.332 413.227 297.425 412.995 296.663 412.531C295.906 412.062 295.321 411.409 294.909 410.571C294.502 409.728 294.298 408.748 294.298 407.631C294.298 406.513 294.502 405.528 294.909 404.676C295.321 403.819 295.894 403.152 296.628 402.673C297.366 402.19 298.228 401.949 299.213 401.949C299.781 401.949 300.342 402.044 300.896 402.233C301.45 402.422 301.954 402.73 302.409 403.156C302.863 403.578 303.226 404.136 303.496 404.832C303.765 405.528 303.9 406.385 303.9 407.403V408.114H295.491V406.665H302.196C302.196 406.049 302.073 405.5 301.827 405.017C301.585 404.534 301.239 404.153 300.79 403.874C300.345 403.594 299.819 403.455 299.213 403.455C298.545 403.455 297.968 403.62 297.48 403.952C296.997 404.278 296.625 404.705 296.365 405.23C296.104 405.756 295.974 406.319 295.974 406.92V407.886C295.974 408.71 296.116 409.409 296.4 409.982C296.689 410.55 297.089 410.983 297.601 411.281C298.112 411.575 298.706 411.722 299.383 411.722C299.824 411.722 300.221 411.66 300.577 411.537C300.936 411.409 301.247 411.22 301.507 410.969C301.767 410.713 301.969 410.396 302.111 410.017L303.73 410.472C303.559 411.021 303.273 411.504 302.871 411.92C302.468 412.332 301.971 412.654 301.379 412.886C300.787 413.114 300.122 413.227 299.383 413.227ZM312.075 417.091V402.091H313.694V403.824H313.893C314.016 403.634 314.187 403.393 314.405 403.099C314.627 402.801 314.944 402.536 315.356 402.304C315.773 402.067 316.336 401.949 317.047 401.949C317.965 401.949 318.775 402.179 319.476 402.638C320.176 403.097 320.723 403.748 321.116 404.591C321.509 405.434 321.706 406.428 321.706 407.574C321.706 408.729 321.509 409.731 321.116 410.578C320.723 411.421 320.179 412.074 319.483 412.538C318.787 412.998 317.984 413.227 317.075 413.227C316.374 413.227 315.813 413.111 315.392 412.879C314.97 412.643 314.646 412.375 314.419 412.077C314.192 411.774 314.016 411.523 313.893 411.324H313.751V417.091H312.075ZM313.723 407.545C313.723 408.369 313.844 409.096 314.085 409.726C314.327 410.351 314.679 410.841 315.143 411.196C315.607 411.546 316.175 411.722 316.848 411.722C317.549 411.722 318.133 411.537 318.602 411.168C319.076 410.794 319.431 410.292 319.667 409.662C319.909 409.027 320.03 408.322 320.03 407.545C320.03 406.778 319.911 406.087 319.675 405.472C319.443 404.851 319.09 404.361 318.616 404.001C318.148 403.637 317.558 403.455 316.848 403.455C316.166 403.455 315.593 403.627 315.129 403.973C314.665 404.314 314.315 404.792 314.078 405.408C313.841 406.018 313.723 406.731 313.723 407.545ZM325.939 398.455V413H324.263V398.455H325.939ZM333.583 413.227C332.531 413.227 331.625 412.995 330.862 412.531C330.105 412.062 329.52 411.409 329.108 410.571C328.701 409.728 328.497 408.748 328.497 407.631C328.497 406.513 328.701 405.528 329.108 404.676C329.52 403.819 330.093 403.152 330.827 402.673C331.566 402.19 332.427 401.949 333.412 401.949C333.98 401.949 334.541 402.044 335.095 402.233C335.649 402.422 336.154 402.73 336.608 403.156C337.063 403.578 337.425 404.136 337.695 404.832C337.965 405.528 338.1 406.385 338.1 407.403V408.114H329.691V406.665H336.395C336.395 406.049 336.272 405.5 336.026 405.017C335.784 404.534 335.439 404.153 334.989 403.874C334.544 403.594 334.018 403.455 333.412 403.455C332.744 403.455 332.167 403.62 331.679 403.952C331.196 404.278 330.825 404.705 330.564 405.23C330.304 405.756 330.173 406.319 330.173 406.92V407.886C330.173 408.71 330.316 409.409 330.6 409.982C330.888 410.55 331.289 410.983 331.8 411.281C332.311 411.575 332.905 411.722 333.583 411.722C334.023 411.722 334.421 411.66 334.776 411.537C335.136 411.409 335.446 411.22 335.706 410.969C335.967 410.713 336.168 410.396 336.31 410.017L337.929 410.472C337.759 411.021 337.472 411.504 337.07 411.92C336.667 412.332 336.17 412.654 335.578 412.886C334.986 413.114 334.321 413.227 333.583 413.227ZM343.86 413.256C343.168 413.256 342.541 413.125 341.977 412.865C341.414 412.6 340.967 412.219 340.635 411.722C340.304 411.22 340.138 410.614 340.138 409.903C340.138 409.278 340.261 408.772 340.507 408.384C340.753 407.991 341.083 407.683 341.494 407.46C341.906 407.238 342.361 407.072 342.858 406.963C343.36 406.849 343.864 406.759 344.371 406.693C345.034 406.608 345.571 406.544 345.983 406.501C346.4 406.454 346.703 406.376 346.892 406.267C347.086 406.158 347.183 405.969 347.183 405.699V405.642C347.183 404.941 346.992 404.397 346.608 404.009C346.229 403.62 345.654 403.426 344.882 403.426C344.082 403.426 343.455 403.601 343 403.952C342.546 404.302 342.226 404.676 342.041 405.074L340.45 404.506C340.735 403.843 341.113 403.327 341.587 402.957C342.065 402.583 342.586 402.323 343.149 402.176C343.718 402.025 344.276 401.949 344.825 401.949C345.176 401.949 345.578 401.991 346.033 402.077C346.492 402.157 346.935 402.325 347.361 402.581C347.792 402.837 348.149 403.223 348.433 403.739C348.718 404.255 348.86 404.946 348.86 405.812V413H347.183V411.523H347.098C346.985 411.759 346.795 412.013 346.53 412.283C346.265 412.553 345.912 412.782 345.472 412.972C345.031 413.161 344.494 413.256 343.86 413.256ZM344.115 411.75C344.778 411.75 345.337 411.62 345.791 411.359C346.251 411.099 346.596 410.763 346.828 410.351C347.065 409.939 347.183 409.506 347.183 409.051V407.517C347.112 407.602 346.956 407.68 346.715 407.751C346.478 407.818 346.203 407.877 345.891 407.929C345.583 407.976 345.282 408.019 344.989 408.057C344.7 408.09 344.466 408.118 344.286 408.142C343.85 408.199 343.443 408.291 343.064 408.419C342.69 408.542 342.387 408.729 342.155 408.98C341.928 409.226 341.814 409.562 341.814 409.989C341.814 410.571 342.03 411.011 342.46 411.31C342.896 411.603 343.448 411.75 344.115 411.75ZM359.646 404.534L358.14 404.96C358.046 404.709 357.906 404.465 357.721 404.229C357.541 403.987 357.295 403.788 356.983 403.632C356.67 403.476 356.27 403.398 355.782 403.398C355.115 403.398 354.559 403.552 354.113 403.859C353.673 404.162 353.453 404.548 353.453 405.017C353.453 405.434 353.604 405.763 353.907 406.004C354.211 406.246 354.684 406.447 355.328 406.608L356.947 407.006C357.923 407.242 358.649 407.605 359.128 408.092C359.606 408.575 359.845 409.198 359.845 409.96C359.845 410.585 359.665 411.144 359.305 411.636C358.95 412.129 358.453 412.517 357.814 412.801C357.175 413.085 356.431 413.227 355.584 413.227C354.471 413.227 353.55 412.986 352.821 412.503C352.092 412.02 351.63 411.314 351.436 410.386L353.027 409.989C353.178 410.576 353.465 411.016 353.886 411.31C354.312 411.603 354.869 411.75 355.555 411.75C356.336 411.75 356.957 411.584 357.416 411.253C357.88 410.917 358.112 410.514 358.112 410.045C358.112 409.667 357.979 409.349 357.714 409.094C357.449 408.833 357.042 408.639 356.493 408.511L354.675 408.085C353.675 407.848 352.942 407.482 352.473 406.984C352.009 406.482 351.777 405.855 351.777 405.102C351.777 404.487 351.95 403.942 352.295 403.469C352.646 402.995 353.122 402.624 353.723 402.354C354.329 402.084 355.015 401.949 355.782 401.949C356.862 401.949 357.71 402.186 358.325 402.659C358.945 403.133 359.386 403.758 359.646 404.534ZM366.942 413.227C365.891 413.227 364.984 412.995 364.222 412.531C363.464 412.062 362.879 411.409 362.468 410.571C362.06 409.728 361.857 408.748 361.857 407.631C361.857 406.513 362.06 405.528 362.468 404.676C362.879 403.819 363.452 403.152 364.186 402.673C364.925 402.19 365.787 401.949 366.771 401.949C367.34 401.949 367.901 402.044 368.455 402.233C369.009 402.422 369.513 402.73 369.968 403.156C370.422 403.578 370.784 404.136 371.054 404.832C371.324 405.528 371.459 406.385 371.459 407.403V408.114H363.05V406.665H369.754C369.754 406.049 369.631 405.5 369.385 405.017C369.144 404.534 368.798 404.153 368.348 403.874C367.903 403.594 367.378 403.455 366.771 403.455C366.104 403.455 365.526 403.62 365.039 403.952C364.556 404.278 364.184 404.705 363.923 405.23C363.663 405.756 363.533 406.319 363.533 406.92V407.886C363.533 408.71 363.675 409.409 363.959 409.982C364.248 410.55 364.648 410.983 365.159 411.281C365.671 411.575 366.265 411.722 366.942 411.722C367.382 411.722 367.78 411.66 368.135 411.537C368.495 411.409 368.805 411.22 369.066 410.969C369.326 410.713 369.527 410.396 369.669 410.017L371.289 410.472C371.118 411.021 370.832 411.504 370.429 411.92C370.027 412.332 369.53 412.654 368.938 412.886C368.346 413.114 367.681 413.227 366.942 413.227ZM384.066 413.227C383.043 413.227 382.162 412.986 381.423 412.503C380.685 412.02 380.117 411.355 379.719 410.507C379.321 409.66 379.122 408.691 379.122 407.602C379.122 406.494 379.326 405.517 379.733 404.669C380.145 403.817 380.718 403.152 381.452 402.673C382.191 402.19 383.052 401.949 384.037 401.949C384.804 401.949 385.495 402.091 386.111 402.375C386.727 402.659 387.231 403.057 387.624 403.568C388.017 404.08 388.261 404.676 388.355 405.358H386.679C386.551 404.861 386.267 404.42 385.827 404.037C385.391 403.649 384.804 403.455 384.066 403.455C383.412 403.455 382.839 403.625 382.347 403.966C381.859 404.302 381.478 404.778 381.203 405.393C380.933 406.004 380.798 406.722 380.798 407.545C380.798 408.388 380.931 409.122 381.196 409.747C381.466 410.372 381.845 410.857 382.333 411.203C382.825 411.549 383.403 411.722 384.066 411.722C384.501 411.722 384.896 411.646 385.252 411.494C385.607 411.343 385.907 411.125 386.154 410.841C386.4 410.557 386.575 410.216 386.679 409.818H388.355C388.261 410.462 388.026 411.042 387.652 411.558C387.283 412.07 386.793 412.477 386.182 412.78C385.576 413.078 384.87 413.227 384.066 413.227ZM392.482 398.455V413H390.806V398.455H392.482ZM395.552 413V402.091H397.228V413H395.552ZM396.404 400.273C396.077 400.273 395.796 400.161 395.559 399.939C395.327 399.716 395.211 399.449 395.211 399.136C395.211 398.824 395.327 398.556 395.559 398.334C395.796 398.111 396.077 398 396.404 398C396.731 398 397.01 398.111 397.242 398.334C397.479 398.556 397.597 398.824 397.597 399.136C397.597 399.449 397.479 399.716 397.242 399.939C397.01 400.161 396.731 400.273 396.404 400.273ZM404.73 413.227C403.707 413.227 402.826 412.986 402.088 412.503C401.349 412.02 400.781 411.355 400.383 410.507C399.985 409.66 399.786 408.691 399.786 407.602C399.786 406.494 399.99 405.517 400.397 404.669C400.809 403.817 401.382 403.152 402.116 402.673C402.855 402.19 403.716 401.949 404.701 401.949C405.468 401.949 406.16 402.091 406.775 402.375C407.391 402.659 407.895 403.057 408.288 403.568C408.681 404.08 408.925 404.676 409.019 405.358H407.343C407.215 404.861 406.931 404.42 406.491 404.037C406.055 403.649 405.468 403.455 404.73 403.455C404.076 403.455 403.503 403.625 403.011 403.966C402.523 404.302 402.142 404.778 401.867 405.393C401.597 406.004 401.463 406.722 401.463 407.545C401.463 408.388 401.595 409.122 401.86 409.747C402.13 410.372 402.509 410.857 402.997 411.203C403.489 411.549 404.067 411.722 404.73 411.722C405.165 411.722 405.561 411.646 405.916 411.494C406.271 411.343 406.571 411.125 406.818 410.841C407.064 410.557 407.239 410.216 407.343 409.818H409.019C408.925 410.462 408.69 411.042 408.316 411.558C407.947 412.07 407.457 412.477 406.846 412.78C406.24 413.078 405.535 413.227 404.73 413.227ZM413.032 409.023L413.004 406.949H413.345L418.117 402.091H420.191L415.106 407.233H414.964L413.032 409.023ZM411.47 413V398.455H413.146V413H411.47ZM418.401 413L414.14 407.602L415.333 406.438L420.532 413H418.401ZM150.081 430.091V431.511H144.428V430.091H150.081ZM146.075 427.477H147.752V437.875C147.752 438.348 147.82 438.704 147.958 438.94C148.1 439.172 148.28 439.329 148.497 439.409C148.72 439.485 148.954 439.523 149.2 439.523C149.385 439.523 149.537 439.513 149.655 439.494C149.773 439.471 149.868 439.452 149.939 439.438L150.28 440.943C150.166 440.986 150.008 441.028 149.804 441.071C149.601 441.118 149.343 441.142 149.03 441.142C148.557 441.142 148.093 441.04 147.638 440.837C147.188 440.633 146.814 440.323 146.516 439.906C146.222 439.49 146.075 438.964 146.075 438.33V427.477ZM154.513 434.438V441H152.837V426.455H154.513V431.795H154.655C154.911 431.232 155.294 430.785 155.806 430.453C156.322 430.117 157.008 429.949 157.865 429.949C158.609 429.949 159.26 430.098 159.818 430.396C160.377 430.69 160.81 431.142 161.118 431.753C161.431 432.359 161.587 433.131 161.587 434.068V441H159.911V434.182C159.911 433.315 159.686 432.645 159.236 432.172C158.791 431.694 158.173 431.455 157.382 431.455C156.833 431.455 156.341 431.571 155.905 431.803C155.474 432.035 155.133 432.373 154.882 432.818C154.636 433.263 154.513 433.803 154.513 434.438ZM169.227 441.227C168.176 441.227 167.269 440.995 166.507 440.531C165.749 440.062 165.165 439.409 164.753 438.571C164.345 437.728 164.142 436.748 164.142 435.631C164.142 434.513 164.345 433.528 164.753 432.676C165.165 431.819 165.738 431.152 166.471 430.673C167.21 430.19 168.072 429.949 169.057 429.949C169.625 429.949 170.186 430.044 170.74 430.233C171.294 430.422 171.798 430.73 172.253 431.156C172.707 431.578 173.069 432.136 173.339 432.832C173.609 433.528 173.744 434.385 173.744 435.403V436.114H165.335V434.665H172.04C172.04 434.049 171.916 433.5 171.67 433.017C171.429 432.534 171.083 432.153 170.633 431.874C170.188 431.594 169.663 431.455 169.057 431.455C168.389 431.455 167.811 431.62 167.324 431.952C166.841 432.278 166.469 432.705 166.209 433.23C165.948 433.756 165.818 434.319 165.818 434.92V435.886C165.818 436.71 165.96 437.409 166.244 437.982C166.533 438.55 166.933 438.983 167.444 439.281C167.956 439.575 168.55 439.722 169.227 439.722C169.667 439.722 170.065 439.66 170.42 439.537C170.78 439.409 171.09 439.22 171.351 438.969C171.611 438.713 171.812 438.396 171.954 438.017L173.574 438.472C173.403 439.021 173.117 439.504 172.714 439.92C172.312 440.332 171.815 440.654 171.223 440.886C170.631 441.114 169.966 441.227 169.227 441.227ZM183.368 426.455V431.455H181.805V426.455H183.368ZM187.004 426.455V431.455H185.442V426.455H187.004ZM189.227 441H187.381L192.721 426.455H194.54L199.881 441H198.034L193.687 428.756H193.574L189.227 441ZM189.909 435.318H197.352V436.881H189.909V435.318ZM206.038 441.227C205.129 441.227 204.327 440.998 203.631 440.538C202.934 440.074 202.39 439.421 201.997 438.578C201.604 437.731 201.407 436.729 201.407 435.574C201.407 434.428 201.604 433.434 201.997 432.591C202.39 431.748 202.937 431.097 203.638 430.638C204.338 430.179 205.148 429.949 206.067 429.949C206.777 429.949 207.338 430.067 207.75 430.304C208.166 430.536 208.484 430.801 208.702 431.099C208.924 431.393 209.097 431.634 209.22 431.824H209.362V426.455H211.038V441H209.419V439.324H209.22C209.097 439.523 208.922 439.774 208.694 440.077C208.467 440.375 208.143 440.643 207.721 440.879C207.3 441.111 206.739 441.227 206.038 441.227ZM206.265 439.722C206.938 439.722 207.506 439.546 207.97 439.196C208.434 438.841 208.787 438.351 209.028 437.726C209.27 437.096 209.39 436.369 209.39 435.545C209.39 434.731 209.272 434.018 209.035 433.408C208.799 432.792 208.448 432.314 207.984 431.973C207.52 431.627 206.947 431.455 206.265 431.455C205.555 431.455 204.963 431.637 204.49 432.001C204.021 432.361 203.668 432.851 203.432 433.472C203.2 434.087 203.084 434.778 203.084 435.545C203.084 436.322 203.202 437.027 203.439 437.662C203.68 438.292 204.035 438.794 204.504 439.168C204.978 439.537 205.565 439.722 206.265 439.722ZM218.46 441.227C217.551 441.227 216.748 440.998 216.052 440.538C215.356 440.074 214.812 439.421 214.419 438.578C214.026 437.731 213.829 436.729 213.829 435.574C213.829 434.428 214.026 433.434 214.419 432.591C214.812 431.748 215.359 431.097 216.059 430.638C216.76 430.179 217.57 429.949 218.488 429.949C219.199 429.949 219.76 430.067 220.172 430.304C220.588 430.536 220.906 430.801 221.123 431.099C221.346 431.393 221.519 431.634 221.642 431.824H221.784V426.455H223.46V441H221.841V439.324H221.642C221.519 439.523 221.344 439.774 221.116 440.077C220.889 440.375 220.565 440.643 220.143 440.879C219.722 441.111 219.161 441.227 218.46 441.227ZM218.687 439.722C219.36 439.722 219.928 439.546 220.392 439.196C220.856 438.841 221.209 438.351 221.45 437.726C221.692 437.096 221.812 436.369 221.812 435.545C221.812 434.731 221.694 434.018 221.457 433.408C221.22 432.792 220.87 432.314 220.406 431.973C219.942 431.627 219.369 431.455 218.687 431.455C217.977 431.455 217.385 431.637 216.912 432.001C216.443 432.361 216.09 432.851 215.854 433.472C215.622 434.087 215.506 434.778 215.506 435.545C215.506 436.322 215.624 437.027 215.861 437.662C216.102 438.292 216.457 438.794 216.926 439.168C217.399 439.537 217.987 439.722 218.687 439.722ZM235.598 441.256C234.907 441.256 234.279 441.125 233.716 440.865C233.152 440.6 232.705 440.219 232.373 439.722C232.042 439.22 231.876 438.614 231.876 437.903C231.876 437.278 231.999 436.772 232.246 436.384C232.492 435.991 232.821 435.683 233.233 435.46C233.645 435.238 234.099 435.072 234.596 434.963C235.098 434.849 235.603 434.759 236.109 434.693C236.772 434.608 237.309 434.544 237.721 434.501C238.138 434.454 238.441 434.376 238.631 434.267C238.825 434.158 238.922 433.969 238.922 433.699V433.642C238.922 432.941 238.73 432.397 238.346 432.009C237.968 431.62 237.392 431.426 236.621 431.426C235.82 431.426 235.193 431.601 234.738 431.952C234.284 432.302 233.964 432.676 233.78 433.074L232.189 432.506C232.473 431.843 232.852 431.327 233.325 430.957C233.803 430.583 234.324 430.323 234.888 430.176C235.456 430.025 236.015 429.949 236.564 429.949C236.914 429.949 237.317 429.991 237.771 430.077C238.23 430.157 238.673 430.325 239.099 430.581C239.53 430.837 239.888 431.223 240.172 431.739C240.456 432.255 240.598 432.946 240.598 433.812V441H238.922V439.523H238.836C238.723 439.759 238.533 440.013 238.268 440.283C238.003 440.553 237.65 440.782 237.21 440.972C236.77 441.161 236.232 441.256 235.598 441.256ZM235.854 439.75C236.516 439.75 237.075 439.62 237.53 439.359C237.989 439.099 238.335 438.763 238.567 438.351C238.803 437.939 238.922 437.506 238.922 437.051V435.517C238.851 435.602 238.694 435.68 238.453 435.751C238.216 435.818 237.942 435.877 237.629 435.929C237.321 435.976 237.021 436.019 236.727 436.057C236.438 436.09 236.204 436.118 236.024 436.142C235.588 436.199 235.181 436.291 234.802 436.419C234.428 436.542 234.125 436.729 233.893 436.98C233.666 437.226 233.552 437.562 233.552 437.989C233.552 438.571 233.768 439.011 234.199 439.31C234.634 439.603 235.186 439.75 235.854 439.75ZM250.958 434.438V441H249.282V430.091H250.901V431.795H251.044C251.299 431.241 251.687 430.796 252.208 430.46C252.729 430.119 253.401 429.949 254.225 429.949C254.964 429.949 255.61 430.1 256.164 430.403C256.718 430.702 257.149 431.156 257.457 431.767C257.765 432.373 257.919 433.14 257.919 434.068V441H256.242V434.182C256.242 433.325 256.02 432.657 255.575 432.179C255.13 431.696 254.519 431.455 253.742 431.455C253.207 431.455 252.729 431.571 252.308 431.803C251.891 432.035 251.562 432.373 251.32 432.818C251.079 433.263 250.958 433.803 250.958 434.438ZM265.413 441.227C264.428 441.227 263.564 440.993 262.821 440.524C262.082 440.055 261.505 439.4 261.088 438.557C260.676 437.714 260.47 436.729 260.47 435.602C260.47 434.466 260.676 433.474 261.088 432.626C261.505 431.779 262.082 431.121 262.821 430.652C263.564 430.183 264.428 429.949 265.413 429.949C266.398 429.949 267.26 430.183 267.998 430.652C268.742 431.121 269.319 431.779 269.731 432.626C270.148 433.474 270.356 434.466 270.356 435.602C270.356 436.729 270.148 437.714 269.731 438.557C269.319 439.4 268.742 440.055 267.998 440.524C267.26 440.993 266.398 441.227 265.413 441.227ZM265.413 439.722C266.161 439.722 266.777 439.53 267.26 439.146C267.743 438.763 268.1 438.259 268.332 437.634C268.564 437.009 268.68 436.331 268.68 435.602C268.68 434.873 268.564 434.194 268.332 433.564C268.1 432.934 267.743 432.425 267.26 432.037C266.777 431.649 266.161 431.455 265.413 431.455C264.665 431.455 264.05 431.649 263.567 432.037C263.084 432.425 262.726 432.934 262.494 433.564C262.262 434.194 262.146 434.873 262.146 435.602C262.146 436.331 262.262 437.009 262.494 437.634C262.726 438.259 263.084 438.763 263.567 439.146C264.05 439.53 264.665 439.722 265.413 439.722ZM277.659 430.091V431.511H272.006V430.091H277.659ZM273.654 427.477H275.33V437.875C275.33 438.348 275.398 438.704 275.536 438.94C275.678 439.172 275.858 439.329 276.075 439.409C276.298 439.485 276.532 439.523 276.779 439.523C276.963 439.523 277.115 439.513 277.233 439.494C277.352 439.471 277.446 439.452 277.517 439.438L277.858 440.943C277.744 440.986 277.586 441.028 277.382 441.071C277.179 441.118 276.921 441.142 276.608 441.142C276.135 441.142 275.671 441.04 275.216 440.837C274.766 440.633 274.392 440.323 274.094 439.906C273.8 439.49 273.654 438.964 273.654 438.33V427.477ZM284.637 441.227C283.586 441.227 282.679 440.995 281.917 440.531C281.16 440.062 280.575 439.409 280.163 438.571C279.756 437.728 279.552 436.748 279.552 435.631C279.552 434.513 279.756 433.528 280.163 432.676C280.575 431.819 281.148 431.152 281.882 430.673C282.62 430.19 283.482 429.949 284.467 429.949C285.035 429.949 285.596 430.044 286.15 430.233C286.704 430.422 287.208 430.73 287.663 431.156C288.117 431.578 288.48 432.136 288.749 432.832C289.019 433.528 289.154 434.385 289.154 435.403V436.114H280.745V434.665H287.45C287.45 434.049 287.327 433.5 287.08 433.017C286.839 432.534 286.493 432.153 286.044 431.874C285.598 431.594 285.073 431.455 284.467 431.455C283.799 431.455 283.222 431.62 282.734 431.952C282.251 432.278 281.879 432.705 281.619 433.23C281.358 433.756 281.228 434.319 281.228 434.92V435.886C281.228 436.71 281.37 437.409 281.654 437.982C281.943 438.55 282.343 438.983 282.855 439.281C283.366 439.575 283.96 439.722 284.637 439.722C285.078 439.722 285.475 439.66 285.83 439.537C286.19 439.409 286.5 439.22 286.761 438.969C287.021 438.713 287.222 438.396 287.365 438.017L288.984 438.472C288.813 439.021 288.527 439.504 288.124 439.92C287.722 440.332 287.225 440.654 286.633 440.886C286.041 441.114 285.376 441.227 284.637 441.227ZM293.153 426.455V431.455H291.59V426.455H293.153ZM296.789 426.455V431.455H295.227V426.455H296.789ZM305.623 441V426.455H307.299V431.824H307.441C307.564 431.634 307.734 431.393 307.952 431.099C308.175 430.801 308.492 430.536 308.904 430.304C309.321 430.067 309.884 429.949 310.594 429.949C311.513 429.949 312.323 430.179 313.023 430.638C313.724 431.097 314.271 431.748 314.664 432.591C315.057 433.434 315.253 434.428 315.253 435.574C315.253 436.729 315.057 437.731 314.664 438.578C314.271 439.421 313.726 440.074 313.03 440.538C312.334 440.998 311.532 441.227 310.623 441.227C309.922 441.227 309.361 441.111 308.939 440.879C308.518 440.643 308.194 440.375 307.966 440.077C307.739 439.774 307.564 439.523 307.441 439.324H307.242V441H305.623ZM307.27 435.545C307.27 436.369 307.391 437.096 307.633 437.726C307.874 438.351 308.227 438.841 308.691 439.196C309.155 439.546 309.723 439.722 310.395 439.722C311.096 439.722 311.681 439.537 312.15 439.168C312.623 438.794 312.978 438.292 313.215 437.662C313.456 437.027 313.577 436.322 313.577 435.545C313.577 434.778 313.459 434.087 313.222 433.472C312.99 432.851 312.637 432.361 312.164 432.001C311.695 431.637 311.106 431.455 310.395 431.455C309.714 431.455 309.141 431.627 308.677 431.973C308.213 432.314 307.862 432.792 307.626 433.408C307.389 434.018 307.27 434.731 307.27 435.545ZM324.692 436.54V430.091H326.368V441H324.692V439.153H324.579C324.323 439.707 323.925 440.179 323.385 440.567C322.846 440.95 322.164 441.142 321.34 441.142C320.658 441.142 320.052 440.993 319.522 440.695C318.992 440.392 318.575 439.937 318.272 439.331C317.969 438.72 317.817 437.951 317.817 437.023V430.091H319.493V436.909C319.493 437.705 319.716 438.339 320.161 438.812C320.611 439.286 321.184 439.523 321.88 439.523C322.296 439.523 322.72 439.416 323.151 439.203C323.587 438.99 323.951 438.663 324.245 438.223C324.543 437.783 324.692 437.222 324.692 436.54ZM334.183 430.091V431.511H328.529V430.091H334.183ZM330.177 427.477H331.853V437.875C331.853 438.348 331.922 438.704 332.059 438.94C332.201 439.172 332.381 439.329 332.599 439.409C332.821 439.485 333.056 439.523 333.302 439.523C333.487 439.523 333.638 439.513 333.757 439.494C333.875 439.471 333.97 439.452 334.041 439.438L334.382 440.943C334.268 440.986 334.109 441.028 333.906 441.071C333.702 441.118 333.444 441.142 333.132 441.142C332.658 441.142 332.194 441.04 331.74 440.837C331.29 440.633 330.916 440.323 330.617 439.906C330.324 439.49 330.177 438.964 330.177 438.33V427.477ZM341.448 430.091V431.511H335.795V430.091H341.448ZM337.443 427.477H339.119V437.875C339.119 438.348 339.187 438.704 339.325 438.94C339.467 439.172 339.647 439.329 339.865 439.409C340.087 439.485 340.321 439.523 340.568 439.523C340.752 439.523 340.904 439.513 341.022 439.494C341.141 439.471 341.235 439.452 341.306 439.438L341.647 440.943C341.534 440.986 341.375 441.028 341.171 441.071C340.968 441.118 340.71 441.142 340.397 441.142C339.924 441.142 339.46 441.04 339.005 440.837C338.555 440.633 338.181 440.323 337.883 439.906C337.589 439.49 337.443 438.964 337.443 438.33V427.477ZM348.284 441.227C347.299 441.227 346.435 440.993 345.692 440.524C344.953 440.055 344.376 439.4 343.959 438.557C343.547 437.714 343.341 436.729 343.341 435.602C343.341 434.466 343.547 433.474 343.959 432.626C344.376 431.779 344.953 431.121 345.692 430.652C346.435 430.183 347.299 429.949 348.284 429.949C349.269 429.949 350.131 430.183 350.869 430.652C351.613 431.121 352.191 431.779 352.602 432.626C353.019 433.474 353.227 434.466 353.227 435.602C353.227 436.729 353.019 437.714 352.602 438.557C352.191 439.4 351.613 440.055 350.869 440.524C350.131 440.993 349.269 441.227 348.284 441.227ZM348.284 439.722C349.032 439.722 349.648 439.53 350.131 439.146C350.614 438.763 350.971 438.259 351.203 437.634C351.435 437.009 351.551 436.331 351.551 435.602C351.551 434.873 351.435 434.194 351.203 433.564C350.971 432.934 350.614 432.425 350.131 432.037C349.648 431.649 349.032 431.455 348.284 431.455C347.536 431.455 346.921 431.649 346.438 432.037C345.955 432.425 345.597 432.934 345.365 433.564C345.133 434.194 345.017 434.873 345.017 435.602C345.017 436.331 345.133 437.009 345.365 437.634C345.597 438.259 345.955 438.763 346.438 439.146C346.921 439.53 347.536 439.722 348.284 439.722ZM357.462 434.438V441H355.786V430.091H357.405V431.795H357.547C357.803 431.241 358.191 430.796 358.712 430.46C359.233 430.119 359.905 429.949 360.729 429.949C361.468 429.949 362.114 430.1 362.668 430.403C363.222 430.702 363.653 431.156 363.961 431.767C364.269 432.373 364.422 433.14 364.422 434.068V441H362.746V434.182C362.746 433.325 362.524 432.657 362.079 432.179C361.634 431.696 361.023 431.455 360.246 431.455C359.711 431.455 359.233 431.571 358.812 431.803C358.395 432.035 358.066 432.373 357.824 432.818C357.583 433.263 357.462 433.803 357.462 434.438ZM373.338 441V426.455H375.014V431.824H375.156C375.279 431.634 375.449 431.393 375.667 431.099C375.89 430.801 376.207 430.536 376.619 430.304C377.035 430.067 377.599 429.949 378.309 429.949C379.228 429.949 380.037 430.179 380.738 430.638C381.439 431.097 381.986 431.748 382.379 432.591C382.772 433.434 382.968 434.428 382.968 435.574C382.968 436.729 382.772 437.731 382.379 438.578C381.986 439.421 381.441 440.074 380.745 440.538C380.049 440.998 379.247 441.227 378.338 441.227C377.637 441.227 377.076 441.111 376.654 440.879C376.233 440.643 375.909 440.375 375.681 440.077C375.454 439.774 375.279 439.523 375.156 439.324H374.957V441H373.338ZM374.985 435.545C374.985 436.369 375.106 437.096 375.347 437.726C375.589 438.351 375.942 438.841 376.406 439.196C376.87 439.546 377.438 439.722 378.11 439.722C378.811 439.722 379.396 439.537 379.865 439.168C380.338 438.794 380.693 438.292 380.93 437.662C381.171 437.027 381.292 436.322 381.292 435.545C381.292 434.778 381.174 434.087 380.937 433.472C380.705 432.851 380.352 432.361 379.879 432.001C379.41 431.637 378.82 431.455 378.11 431.455C377.428 431.455 376.856 431.627 376.392 431.973C375.927 432.314 375.577 432.792 375.34 433.408C375.104 434.018 374.985 434.731 374.985 435.545ZM390.106 441.227C389.055 441.227 388.148 440.995 387.386 440.531C386.628 440.062 386.044 439.409 385.632 438.571C385.224 437.728 385.021 436.748 385.021 435.631C385.021 434.513 385.224 433.528 385.632 432.676C386.044 431.819 386.616 431.152 387.35 430.673C388.089 430.19 388.951 429.949 389.936 429.949C390.504 429.949 391.065 430.044 391.619 430.233C392.173 430.422 392.677 430.73 393.132 431.156C393.586 431.578 393.948 432.136 394.218 432.832C394.488 433.528 394.623 434.385 394.623 435.403V436.114H386.214V434.665H392.919C392.919 434.049 392.795 433.5 392.549 433.017C392.308 432.534 391.962 432.153 391.512 431.874C391.067 431.594 390.542 431.455 389.936 431.455C389.268 431.455 388.69 431.62 388.203 431.952C387.72 432.278 387.348 432.705 387.088 433.23C386.827 433.756 386.697 434.319 386.697 434.92V435.886C386.697 436.71 386.839 437.409 387.123 437.982C387.412 438.55 387.812 438.983 388.323 439.281C388.835 439.575 389.429 439.722 390.106 439.722C390.546 439.722 390.944 439.66 391.299 439.537C391.659 439.409 391.969 439.22 392.23 438.969C392.49 438.713 392.691 438.396 392.833 438.017L394.453 438.472C394.282 439.021 393.996 439.504 393.593 439.92C393.191 440.332 392.694 440.654 392.102 440.886C391.51 441.114 390.845 441.227 390.106 441.227ZM398.849 426.455V441H397.173V426.455H398.849ZM406.351 441.227C405.366 441.227 404.502 440.993 403.758 440.524C403.02 440.055 402.442 439.4 402.025 438.557C401.613 437.714 401.407 436.729 401.407 435.602C401.407 434.466 401.613 433.474 402.025 432.626C402.442 431.779 403.02 431.121 403.758 430.652C404.502 430.183 405.366 429.949 406.351 429.949C407.336 429.949 408.197 430.183 408.936 430.652C409.679 431.121 410.257 431.779 410.669 432.626C411.086 433.474 411.294 434.466 411.294 435.602C411.294 436.729 411.086 437.714 410.669 438.557C410.257 439.4 409.679 440.055 408.936 440.524C408.197 440.993 407.336 441.227 406.351 441.227ZM406.351 439.722C407.099 439.722 407.714 439.53 408.197 439.146C408.68 438.763 409.038 438.259 409.27 437.634C409.502 437.009 409.618 436.331 409.618 435.602C409.618 434.873 409.502 434.194 409.27 433.564C409.038 432.934 408.68 432.425 408.197 432.037C407.714 431.649 407.099 431.455 406.351 431.455C405.603 431.455 404.987 431.649 404.504 432.037C404.021 432.425 403.664 432.934 403.432 433.564C403.2 434.194 403.084 434.873 403.084 435.602C403.084 436.331 403.2 437.009 403.432 437.634C403.664 438.259 404.021 438.763 404.504 439.146C404.987 439.53 405.603 439.722 406.351 439.722ZM415.953 441L412.629 430.091H414.39L416.748 438.443H416.862L419.192 430.091H420.981L423.282 438.415H423.396L425.754 430.091H427.515L424.192 441H422.544L420.157 432.619H419.987L417.601 441H415.953Z" fill="#1F1F1F"/>
<defs>
<clipPath id="clip0_73_1015">
<rect width="572" height="320" fill="white"/>
</clipPath>
</defs>
</svg>
