<svg width="180" height="52" viewBox="0 0 180 52" fill="none" xmlns="http://www.w3.org/2000/svg">
<g clip-path="url(#clip0_78_161)">
<path fill-rule="evenodd" clip-rule="evenodd" d="M35.6001 17.916V35.5H39.3793V24.648L44.0433 31.7312H46.2377L49.6937 26.4992L50.4201 25.4008L48.4673 22.0304L47.7409 23.1328L45.1529 27.0592L39.1025 17.916H35.6001ZM85.6449 21.1976H82.8289V32.1752H85.6449C89.1409 32.1752 91.0257 30.312 91.0257 26.6864C91.0257 23.0608 89.1401 21.1984 85.6449 21.1984V21.1976ZM85.6449 17.8744C91.9065 17.8744 94.8737 21.5752 94.8737 26.6864C94.8737 31.7976 91.9065 35.4984 85.6449 35.4984H79.0561V17.8744H85.6449ZM103.44 17.8744C105.447 17.8744 107.478 18.3584 108.928 19.1816V22.5704C107.502 21.5544 105.592 21.0456 103.706 21.0696C101.868 21.0936 100.95 21.6024 100.95 22.6432C100.95 25.5728 110.211 24.4832 110.211 30.5112C110.211 34.312 107.163 35.4984 103.609 35.4984C101.264 35.4984 99.0873 34.9416 97.3465 33.9736V30.5112C99.1256 31.6856 101.212 32.309 103.343 32.3032C105.302 32.3032 106.511 31.8912 106.511 30.6808C106.511 27.5096 97.2505 28.696 97.2505 22.692C97.2505 19.4232 100.103 17.8744 103.44 17.8744ZM125.459 17.8744V21.1976H116.835V24.9496H124.706V28.2472H116.835V32.1752H125.611V35.4984H113.063V17.8744H125.459ZM128.656 35.4984V17.8744H132.202L140.399 29.3808C140.348 28.576 140.323 27.7697 140.324 26.9632V17.8744H144.096V35.4984H140.551L132.353 23.992C132.403 24.7224 132.428 25.6032 132.428 26.4096V35.4984H128.656ZM67.9081 21.1064C67.9291 20.775 67.8514 20.4449 67.6849 20.1576L66.3681 17.876H65.0097L66.6641 20.7456C66.7278 20.8547 66.7488 20.9835 66.7233 21.1072L67.9081 21.1064Z" fill="#1F1F1F"/>
<path fill-rule="evenodd" clip-rule="evenodd" d="M76.5487 27.4864L72.3887 34.6984C72.2495 34.9419 72.0484 35.1442 71.8057 35.285C71.5631 35.4258 71.2876 35.4999 71.0071 35.5H62.6871C62.4065 35.5001 62.1308 35.426 61.8881 35.2852C61.6453 35.1444 61.4441 34.942 61.3047 34.6984L58.8319 30.4096L58.1511 29.2312L57.1447 27.4872C57.0048 27.2435 56.9312 26.9674 56.9312 26.6864C56.9312 26.4054 57.0048 26.1293 57.1447 25.8856L61.3047 18.6744C61.4443 18.4314 61.6456 18.2295 61.8881 18.0891C62.1307 17.9488 62.4061 17.875 62.6863 17.8752H65.0127L66.6679 20.7456C66.7319 20.8576 66.7527 20.9856 66.7263 21.1064H63.6279L60.4095 26.688L61.8711 29.22L62.4695 30.26L63.6279 32.2688H70.0647L73.2831 26.688L70.0647 21.1064H67.9119C67.9327 20.7749 67.8547 20.4448 67.6879 20.1576L66.3719 17.876H71.0071C71.2875 17.8757 71.563 17.9494 71.8058 18.0897C72.0485 18.2301 72.2499 18.432 72.3895 18.6752L76.5495 25.8864C76.8335 26.3824 76.8335 26.9904 76.5495 27.4872" fill="#1F1F1F"/>
<mask id="mask0_78_161" style="mask-type:luminance" maskUnits="userSpaceOnUse" x="46" y="11" width="22" height="20">
<path fill-rule="evenodd" clip-rule="evenodd" d="M46.7601 11.6096H67.9121V30.4096H46.7593L46.7601 11.6096Z" fill="white"/>
</mask>
<g mask="url(#mask0_78_161)">
<path fill-rule="evenodd" clip-rule="evenodd" d="M54.6246 29.2312V30.4096H58.8286L58.1486 29.2312H54.6246ZM67.6862 20.1576L66.3694 17.876L63.2478 12.4616C63.0982 12.2025 62.883 11.9874 62.6239 11.8378C62.3648 11.6883 62.0709 11.6096 61.7718 11.6096H52.8998C52.2902 11.6096 51.7294 11.936 51.4246 12.4616L46.9854 20.1576C46.8366 20.4169 46.7583 20.7106 46.7583 21.0096C46.7583 21.3086 46.8366 21.6023 46.9854 21.8616L47.7014 23.104L49.6494 26.4792L50.855 28.5704V26.2144L50.3742 25.3776L48.4262 21.9992L48.007 21.2736C47.9606 21.1933 47.9362 21.1023 47.9362 21.0096C47.9362 20.9169 47.9606 20.8259 48.007 20.7456L52.4422 13.052C52.4885 12.9717 52.5552 12.905 52.6356 12.8587C52.7159 12.8123 52.807 12.7879 52.8998 12.788H61.7718C61.9598 12.788 62.1358 12.8872 62.2294 13.052L65.011 17.876L66.6654 20.7456C66.7294 20.8568 66.7502 20.9856 66.7246 21.1064C66.7155 21.1656 66.6954 21.2226 66.6654 21.2744L62.2294 28.9672C62.1919 29.0334 62.1402 29.0905 62.0779 29.1342C62.0156 29.178 61.9444 29.2073 61.8694 29.22L62.467 30.26C62.7947 30.1139 63.0679 29.8681 63.2478 29.5576L67.6862 21.8616C67.8214 21.6264 67.8942 21.368 67.9094 21.1064C67.9304 20.775 67.8527 20.4449 67.6862 20.1576Z" fill="#F17900"/>
</g>
<path fill-rule="evenodd" clip-rule="evenodd" d="M54.624 17.876V35.5H50.8544V24.6464L50.3728 25.3776L48.4248 21.9992L51.1296 17.8752L54.624 17.876Z" fill="#1F1F1F"/>
</g>
<defs>
<clipPath id="clip0_78_161">
<rect width="108.8" height="24" fill="white" transform="translate(35.6001 11.5)"/>
</clipPath>
</defs>
</svg>
