<svg width="572" height="320" viewBox="0 0 572 320" fill="none" xmlns="http://www.w3.org/2000/svg">
<g clip-path="url(#clip0_73_958)">
<path d="M533.255 301.37C533.1 307.134 532.131 312.847 530.377 318.341C530.338 318.469 530.295 318.594 530.253 318.722H519.513C519.524 318.608 519.536 318.48 519.547 318.341C520.263 310.137 516.172 260.801 511.236 252.262C511.668 252.954 534.088 275.302 533.255 301.37Z" fill="#F3F3F3"/>
<path d="M532.449 318.341C532.359 318.469 532.266 318.596 532.17 318.722H524.113C524.174 318.613 524.245 318.486 524.327 318.341C525.658 315.947 529.598 308.79 533.254 301.37C537.183 293.396 540.79 285.12 540.486 282.125C540.58 282.8 543.3 303.395 532.449 318.341Z" fill="#F3F3F3"/>
<path d="M29.7224 305.835C29.8375 310.116 30.5571 314.359 31.86 318.439C31.8888 318.534 31.9209 318.627 31.9521 318.722H39.9286C39.9202 318.637 39.9116 318.542 39.9032 318.439C39.3714 312.346 42.4097 275.704 46.0759 269.363C45.7547 269.877 29.1039 286.475 29.7224 305.835Z" fill="#F3F3F3"/>
<path d="M30.321 318.439C30.3877 318.534 30.4571 318.629 30.5281 318.722H36.5123C36.4669 318.641 36.4144 318.547 36.3534 318.439C35.3649 316.661 32.439 311.346 29.7231 305.835C26.8055 299.913 24.1266 293.766 24.3522 291.542C24.2822 292.043 22.2625 307.339 30.321 318.439Z" fill="#F3F3F3"/>
<path d="M419.412 224.463C359.167 199.02 304.664 199.988 253.326 215.517C174.226 201.75 120.061 203.88 85.3174 224.463V160.559H419.412V224.463Z" fill="#CBCBCB"/>
<path d="M419.411 206.89C363.909 181.828 308.474 180.21 252.204 206.89C194.569 190.352 138.853 190.525 84.9966 206.89V12.6211C142.257 -4.41 197.956 -4.00073 252.204 12.6211C309.507 -3.94332 365.293 -4.46866 419.411 12.6211V206.89Z" fill="#F3F3F3"/>
<path d="M100.038 36.7296L98.1707 31.9676C98.9024 31.6828 116.387 24.9466 142.048 21.5105C165.772 18.3331 201.117 17.5745 234.781 32.0001L232.755 36.6968C200.217 22.754 165.916 23.4882 142.87 26.5586C117.787 29.9014 100.212 36.6615 100.038 36.7296Z" fill="white"/>
<path d="M100.038 54.6228L98.1707 49.8608C98.9024 49.5759 116.387 42.8398 142.048 39.4037C165.772 36.2266 201.117 35.468 234.781 49.8933L232.755 54.59C200.217 40.6472 165.916 41.3807 142.87 44.4518C117.787 47.7946 100.212 54.5547 100.038 54.6228Z" fill="white"/>
<path d="M100.038 72.5159L98.1707 67.754C98.9024 67.4691 116.387 60.733 142.048 57.2969C165.772 54.1194 201.117 53.3609 234.781 67.7864L232.755 72.4831C200.217 58.5403 165.916 59.2739 142.87 62.3449C117.787 65.6877 100.212 72.4479 100.038 72.5159Z" fill="white"/>
<path d="M100.038 90.409L98.1707 85.6471C98.9024 85.3622 116.387 78.6261 142.048 75.19C165.772 72.0132 201.117 71.2537 234.781 85.6796L232.755 90.3763C200.217 76.4334 165.916 77.1673 142.87 80.2381C117.787 83.5808 100.212 90.341 100.038 90.409Z" fill="white"/>
<path d="M100.038 108.302L98.1707 103.54C98.9024 103.255 116.387 96.5193 142.048 93.0832C165.772 89.9058 201.117 89.1472 234.781 103.573L232.755 108.269C200.217 94.3263 165.916 95.0606 142.87 98.1313C117.787 101.474 100.212 108.234 100.038 108.302Z" fill="white"/>
<path d="M100.038 126.195L98.1707 121.433C98.9024 121.149 116.387 114.412 142.048 110.976C165.772 107.8 201.117 107.04 234.781 121.466L232.755 126.163C200.217 112.219 165.916 112.954 142.87 116.024C117.787 119.367 100.212 126.127 100.038 126.195Z" fill="white"/>
<path d="M267.405 163.899L265.538 159.137C266.27 158.852 283.755 152.116 309.415 148.68C333.139 145.503 368.485 144.744 402.149 159.169L400.122 163.866C367.584 149.923 333.283 150.657 310.238 153.728C285.154 157.071 267.58 163.831 267.405 163.899Z" fill="#287FE4"/>
<path d="M265.831 129.558V31.83L267.631 31.2696C313.252 17.0681 358.652 17.0709 402.569 31.2781L404.342 31.8516V129.428L400.871 128.123C355.169 110.934 310.929 110.923 269.378 128.093L265.831 129.558ZM333.524 110.1C354.996 110.1 376.892 114.088 399.212 122.066V35.5754C357.457 22.4529 314.325 22.46 270.961 35.5963V121.947C290.885 114.124 312.109 110.105 333.524 110.1Z" fill="white"/>
<path d="M399.318 161.367L399.99 145.102L423.041 99.4304C423.691 98.132 424.751 97.082 426.057 96.4419C426.858 96.0441 427.729 95.8093 428.622 95.7512C429.514 95.6932 430.409 95.813 431.254 96.1037C432.233 96.4401 433.121 96.9974 433.849 97.7321C434.576 98.4667 435.123 99.3589 435.448 100.339C435.587 100.762 435.685 101.198 435.74 101.64C435.904 102.951 435.671 104.282 435.071 105.46L411.989 151.194L399.318 161.367Z" fill="#287FE4"/>
<path d="M428.928 96.0577L403.907 145.635L401.999 144.678L426.199 96.7286C427.047 96.3055 427.98 96.0763 428.928 96.0577Z" fill="#1F1F1F"/>
<path d="M435.422 101.68L411.354 149.367L409.446 148.411L434.416 98.9371C434.723 99.404 434.968 99.9089 435.143 100.439C435.276 100.843 435.369 101.259 435.422 101.68Z" fill="#1F1F1F"/>
<path d="M433.025 97.4249L407.727 147.55L405.82 146.594L431.149 96.4059C431.419 96.4979 431.683 96.6083 431.937 96.7364C432.322 96.9296 432.686 97.1602 433.025 97.4249Z" fill="#1F1F1F"/>
<path d="M402.212 158.634L399.667 160.677L399.88 155.29C400.754 155.593 401.7 156.904 402.212 158.634Z" fill="#1F1F1F"/>
<path d="M151.128 217.34L148.08 208.128L151.327 177.837C151.416 176.977 151.786 176.17 152.38 175.54C152.743 175.151 153.18 174.838 153.665 174.619C154.151 174.4 154.675 174.28 155.208 174.265C155.825 174.248 156.437 174.374 156.998 174.631C157.558 174.889 158.051 175.272 158.438 175.751C158.605 175.958 158.751 176.181 158.875 176.416C159.242 177.113 159.392 177.904 159.306 178.686L156.055 209.019L151.128 217.34Z" fill="#287FE4"/>
<path d="M153.901 174.726L150.376 207.607L149.111 207.472L152.52 175.67C152.904 175.257 153.376 174.934 153.901 174.726Z" fill="#1F1F1F"/>
<path d="M158.705 176.505L155.316 208.133L154.05 207.998L157.567 175.185C157.837 175.381 158.08 175.612 158.289 175.871C158.448 176.068 158.587 176.281 158.705 176.505Z" fill="#1F1F1F"/>
<path d="M156.474 174.632L152.911 207.877L151.646 207.742L155.213 174.456C155.383 174.451 155.553 174.457 155.722 174.475C155.977 174.503 156.229 174.555 156.474 174.632Z" fill="#1F1F1F"/>
<path d="M152.167 215.212L151.177 216.883L150.162 213.834C150.713 213.82 151.517 214.354 152.167 215.212Z" fill="#1F1F1F"/>
<path d="M481.224 206.538C480.877 207.143 480.414 207.674 479.86 208.1C479.307 208.527 478.675 208.841 478.001 209.024C476.638 209.394 475.183 209.209 473.957 208.511C472.731 207.812 471.833 206.656 471.462 205.298C471.091 203.94 471.276 202.491 471.977 201.269C471.989 201.248 472.001 201.227 472.013 201.207C472.162 200.958 472.33 200.721 472.515 200.498L468.035 168.676L467.901 167.723L466.991 161.229L466.856 160.294L467.352 160.317L476.032 160.712L478.36 160.817L478.651 166.74L480.302 200.044C481.165 200.867 481.725 201.954 481.892 203.132C482.059 204.31 481.824 205.509 481.224 206.538Z" fill="#EEC0B2"/>
<path d="M467.926 168.011L478.948 167.004C479.52 166.95 480.047 166.673 480.415 166.233C480.782 165.794 480.961 165.227 480.911 164.657L478.869 141.816C478.672 139.616 477.606 137.584 475.906 136.167C474.205 134.75 472.01 134.065 469.802 134.261C467.595 134.458 465.556 135.52 464.134 137.214C462.712 138.909 462.025 141.097 462.222 143.297C462.236 143.454 462.254 143.611 462.277 143.767L465.582 166.171C465.658 166.685 465.917 167.154 466.311 167.493C466.704 167.832 467.207 168.02 467.728 168.02C467.794 168.022 467.86 168.018 467.926 168.011Z" fill="#F17900"/>
<path d="M476.281 149.558C477.395 146.411 477.447 142.988 476.428 139.809C475.408 136.63 473.374 133.871 470.634 131.951C466.478 129.117 460.791 128.1 454.666 135.366C447.254 144.237 441.967 154.675 439.207 165.886L464.291 169.955C464.291 169.955 472.821 159.564 476.281 149.558Z" fill="#F17900"/>
<path d="M435.712 313.262H428.56L425.158 285.772H435.713L435.712 313.262Z" fill="#EEC0B2"/>
<path d="M414.769 319.879H437.246V311.225H423.453C421.15 311.225 418.941 312.137 417.313 313.76C415.684 315.382 414.769 317.584 414.769 319.879Z" fill="#2C3143"/>
<path d="M494.508 307.046L487.718 309.283L475.83 284.246L485.852 280.945L494.508 307.046Z" fill="#EEC0B2"/>
<path d="M476.707 319.879L498.048 312.849L495.322 304.633L482.227 308.946C480.04 309.666 478.23 311.223 477.194 313.273C476.159 315.323 475.984 317.7 476.707 319.879Z" fill="#2C3143"/>
<path d="M460.535 124.743C468.447 124.743 474.862 118.351 474.862 110.466C474.862 102.58 468.447 96.1877 460.535 96.1877C452.622 96.1877 446.207 102.58 446.207 110.466C446.207 118.351 452.622 124.743 460.535 124.743Z" fill="#EEC0B2"/>
<path d="M447.99 305.61L454.631 261.926C454.702 261.46 454.933 261.033 455.285 260.718C455.637 260.403 456.088 260.219 456.561 260.199C457.033 260.178 457.499 260.322 457.877 260.605C458.255 260.888 458.523 261.294 458.634 261.752L468.748 303.382C468.907 304.019 469.3 304.575 469.849 304.939C470.398 305.303 471.064 305.449 471.716 305.349L499.614 300.881C499.984 300.822 500.337 300.685 500.649 300.478C500.961 300.272 501.226 300.001 501.424 299.685C501.623 299.368 501.751 299.013 501.8 298.643C501.85 298.272 501.819 297.896 501.71 297.539L465.333 178.019C465.229 177.679 465.217 177.319 465.297 176.973L466.508 171.741C466.641 171.174 466.58 170.579 466.334 170.05C466.088 169.522 465.671 169.091 465.151 168.826C460.197 166.307 447.651 161.071 438.182 166.807C437.875 166.993 437.609 167.241 437.401 167.533C437.192 167.826 437.046 168.157 436.97 168.508L408.552 301.613C408.475 301.975 408.475 302.349 408.554 302.711C408.632 303.073 408.787 303.414 409.007 303.711C409.228 304.009 409.509 304.257 409.833 304.438C410.157 304.62 410.515 304.73 410.885 304.763L445.16 307.822C445.238 307.829 445.316 307.833 445.394 307.833C446.021 307.832 446.628 307.607 447.104 307.199C447.579 306.791 447.893 306.227 447.988 305.609L447.99 305.61Z" fill="#2C3143"/>
<path d="M470.035 100.378C468.955 99.7305 467.996 98.9003 467.203 97.9247C466.811 97.4318 466.553 96.8466 466.454 96.2255C466.355 95.6045 466.418 94.9684 466.637 94.3787C467.361 92.787 469.512 92.2859 471.179 92.826C472.846 93.366 474.133 94.6699 475.351 95.9262C476.424 97.0307 477.528 98.1887 478.035 99.6414C478.542 101.094 478.282 102.936 477.016 103.818C475.774 104.683 473.987 104.329 472.793 103.4C471.665 102.384 470.765 101.142 470.153 99.7554L470.035 100.378Z" fill="#2C3143"/>
<path d="M474.888 96.3098C474.967 92.2871 479.568 89.402 483.543 90.1153C487.517 90.8286 490.571 94.2049 492.1 97.9288C495.331 105.797 492.906 114.775 489.793 122.693C486.68 130.611 482.828 138.644 483.282 147.134C483.59 151.722 485.135 156.143 487.755 159.929C490.375 163.715 493.972 166.725 498.166 168.642C493.682 170.668 488.321 168.576 484.552 165.417C476.182 158.404 472.952 145.916 476.875 135.744C478.809 130.727 482.22 126.434 484.882 121.76C487.544 117.086 489.498 111.576 488.123 106.379C486.748 101.181 480.898 96.9737 475.897 98.9845L474.888 96.3098Z" fill="#2C3143"/>
<path d="M459.675 116.801C460.924 114.698 462.184 111.937 459.902 110.098C459.405 109.717 458.837 109.438 458.231 109.278C457.625 109.118 456.993 109.081 456.373 109.168C453.799 109.477 450.996 109.605 448.505 108.673C447.57 108.352 446.71 107.848 445.975 107.19C445.24 106.532 444.645 105.733 444.226 104.841C442.942 101.805 444.55 98.1143 447.239 96.1948C448.884 95.0631 450.827 94.4406 452.826 94.4054C454.824 94.3701 456.789 94.9236 458.473 95.9966C461.955 94.4636 466.18 95.1455 469.344 97.2557C472.508 99.3659 474.673 102.745 475.849 106.353C476.932 109.459 477.119 112.806 476.387 116.012C475.799 118.243 474.679 120.299 473.124 122.007C471.569 123.715 469.624 125.024 467.453 125.824C466.608 126.156 465.689 126.262 464.79 126.129C463.891 125.996 463.043 125.631 462.33 125.068C461.172 124.033 460.283 122.734 459.738 121.282C459.262 119.691 459.009 117.925 459.675 116.801Z" fill="#2C3143"/>
<path d="M417.172 129.542C417.244 129.855 417.291 130.174 417.312 130.495L442.37 144.901L448.461 141.407L454.954 149.878L444.775 157.108C443.952 157.693 442.962 157.995 441.952 157.971C440.942 157.946 439.968 157.596 439.175 156.972L413.333 136.658C412.166 137.088 410.896 137.155 409.691 136.848C408.485 136.542 407.402 135.877 406.586 134.942C405.769 134.007 405.257 132.846 405.118 131.614C404.98 130.382 405.221 129.137 405.81 128.045C406.398 126.953 407.307 126.066 408.414 125.501C409.521 124.936 410.775 124.72 412.008 124.883C413.241 125.045 414.396 125.578 415.318 126.41C416.239 127.242 416.885 128.335 417.169 129.542L417.172 129.542Z" fill="#EEC0B2"/>
<path d="M443.208 145.584L451.307 156.044C451.538 156.341 451.83 156.586 452.164 156.76C452.497 156.935 452.865 157.036 453.241 157.057C453.617 157.077 453.994 157.017 454.345 156.88C454.695 156.742 455.012 156.531 455.274 156.261L464.442 146.773C465.214 146.205 465.865 145.49 466.358 144.67C466.852 143.85 467.178 142.942 467.319 141.996C467.459 141.05 467.411 140.086 467.177 139.159C466.943 138.232 466.528 137.36 465.955 136.593C465.383 135.826 464.664 135.18 463.84 134.69C463.016 134.2 462.103 133.878 461.153 133.74C460.204 133.603 459.237 133.654 458.307 133.889C457.378 134.125 456.504 134.542 455.736 135.114C455.657 135.173 455.578 135.234 455.502 135.296L444.003 141.703C443.674 141.886 443.388 142.139 443.166 142.442C442.943 142.746 442.789 143.093 442.713 143.462C442.638 143.83 442.643 144.21 442.728 144.576C442.813 144.943 442.976 145.286 443.207 145.584H443.208Z" fill="#F17900"/>
<path d="M133.735 312.369L141.509 312.369L145.208 282.486L133.734 282.487L133.735 312.369Z" fill="#EEC0B2"/>
<path d="M131.752 309.84L147.062 309.839H147.063C149.651 309.839 152.132 310.864 153.962 312.687C155.792 314.51 156.82 316.983 156.82 319.562V319.878L131.753 319.879L131.752 309.84Z" fill="#2C3143"/>
<path d="M73.2034 309.016L80.8901 310.174L89.0296 281.178L78.9522 279.469L73.2034 309.016Z" fill="#EEC0B2"/>
<path d="M71.6217 306.219L86.7599 308.499C89.3183 308.885 91.619 310.267 93.1546 312.343C94.6903 314.418 95.3358 317.017 94.9491 319.566L94.9017 319.879L70.1162 316.145L71.6217 306.219Z" fill="#2C3143"/>
<path d="M97.1727 164.279L105.804 166.532L105.23 180.479L105.159 205.87C106.009 206.457 106.661 207.286 107.028 208.249C107.395 209.213 107.46 210.265 107.214 211.265C106.968 212.266 106.423 213.169 105.651 213.855C104.88 214.54 103.917 214.976 102.891 215.104C101.865 215.233 100.824 215.048 99.906 214.574C98.9879 214.1 98.2357 213.36 97.749 212.451C97.2624 211.541 97.0641 210.506 97.1806 209.483C97.297 208.459 97.7226 207.494 98.401 206.717L95.7485 181.232L97.1727 164.279Z" fill="#EEC0B2"/>
<path d="M95.6703 148.304C95.718 146.957 96.1541 145.651 96.9265 144.544C97.6989 143.436 98.775 142.574 100.026 142.06C101.197 141.538 102.496 141.368 103.763 141.571C105.03 141.774 106.209 142.341 107.157 143.203C107.838 143.809 108.379 144.557 108.74 145.393C109.102 146.229 109.276 147.133 109.251 148.043C109.273 156.213 107.423 168.122 107.404 168.241L107.374 168.43L94.7576 172.664L95.6703 148.304Z" fill="#F17900"/>
<path d="M118.23 171.496L137.527 166.518L146.448 196.457L146.765 307.992L132.008 307.9L125.839 217.627L86.5238 301.041L70.6709 299.145L105.23 209.728C105.23 209.728 103.328 193.929 109.352 186.03L108.084 177.815L118.23 171.496Z" fill="#2C3143"/>
<path d="M105.217 178.945C104.948 178.618 104.752 178.237 104.643 177.828C104.534 177.419 104.515 176.991 104.586 176.574L95.7841 150.258C95.3732 149.028 95.3295 147.705 95.6584 146.451C95.9874 145.196 96.6747 144.064 97.6371 143.192L101.458 139.73L104.048 129.408L118.931 133.033L117.705 137.921L124.441 136.701L138.629 168.192L108.973 180.004L107.512 180.027C107.073 180.028 106.639 179.931 106.242 179.744C105.845 179.557 105.495 179.284 105.217 178.945Z" fill="#F17900"/>
<path d="M125.876 156.725L134.38 154.032L141.375 166.125L154.935 187.622C155.968 187.665 156.964 188.019 157.791 188.637C158.617 189.256 159.236 190.11 159.565 191.087C159.895 192.064 159.918 193.117 159.634 194.108C159.349 195.099 158.769 195.98 157.971 196.635C157.173 197.29 156.194 197.688 155.164 197.777C154.133 197.865 153.101 197.64 152.202 197.131C151.303 196.622 150.58 195.853 150.129 194.925C149.678 193.998 149.521 192.956 149.677 191.938L133.766 171.812L125.876 156.725Z" fill="#EEC0B2"/>
<path d="M116.037 144.025C115.355 142.86 115.023 141.525 115.082 140.177C115.141 138.83 115.588 137.528 116.369 136.427C117.079 135.363 118.086 134.527 119.265 134.024C120.445 133.521 121.746 133.372 123.009 133.595C123.91 133.745 124.767 134.088 125.522 134.602C126.276 135.116 126.908 135.788 127.375 136.571C131.776 143.463 136.6 154.514 136.648 154.624L136.724 154.8L128.332 165.099L116.037 144.025Z" fill="#F17900"/>
<path d="M115.06 127.487C121.591 127.487 126.885 122.211 126.885 115.702C126.885 109.194 121.591 103.918 115.06 103.918C108.529 103.918 103.234 109.194 103.234 115.702C103.234 122.211 108.529 127.487 115.06 127.487Z" fill="#EEC0B2"/>
<path d="M94.1615 110.731C100.453 110.731 105.553 105.649 105.553 99.3796C105.553 93.1103 100.453 88.028 94.1615 88.028C87.8704 88.028 82.7705 93.1103 82.7705 99.3796C82.7705 105.649 87.8704 110.731 94.1615 110.731Z" fill="#2C3143"/>
<path d="M84.3364 108.78C85.8108 109.841 87.5189 110.536 89.3178 110.805C91.1168 111.074 92.9543 110.91 94.6766 110.327C96.3989 109.743 97.9559 108.757 99.2173 107.451C100.479 106.145 101.408 104.556 101.927 102.819C101.731 104.376 101.212 105.876 100.405 107.223C99.5977 108.57 98.5188 109.736 97.2365 110.647C95.9542 111.558 94.4963 112.194 92.9549 112.515C91.4135 112.836 89.822 112.835 88.281 112.512C86.7399 112.189 85.2828 111.551 84.0016 110.639C82.7203 109.727 81.6428 108.56 80.8371 107.211C80.0313 105.863 79.5149 104.363 79.3202 102.806C79.1256 101.248 79.2571 99.6678 79.7064 98.1637C79.4512 100.184 79.7464 102.236 80.5611 104.104C81.3757 105.972 82.6798 107.587 84.3364 108.78Z" fill="#2C3143"/>
<path d="M129.29 108.792C127.302 105.244 126.541 103.762 123.977 101.605C121.709 99.6969 118.92 99.1366 116.671 100.944C114.01 99.7986 111.049 99.5388 108.228 100.204C105.407 100.868 102.876 102.422 101.011 104.635C99.1471 106.847 98.0486 109.599 97.879 112.483C97.7095 115.367 98.4779 118.229 100.07 120.643C101.663 123.057 103.994 124.895 106.718 125.883C109.442 126.872 112.413 126.958 115.19 126.13C117.967 125.302 120.402 123.603 122.134 121.286C123.865 118.968 124.8 116.156 124.799 113.268C124.797 112.76 124.767 112.253 124.708 111.75C126.663 111.476 127.335 109.066 129.29 108.792Z" fill="#2C3143"/>
<path d="M244.96 320H0.641256C0.471184 320 0.308078 319.933 0.187819 319.813C0.0675602 319.693 0 319.53 0 319.361C0 319.191 0.0675602 319.029 0.187819 318.909C0.308078 318.789 0.471184 318.722 0.641256 318.722H244.96C245.13 318.722 245.293 318.789 245.413 318.909C245.533 319.029 245.601 319.191 245.601 319.361C245.601 319.53 245.533 319.693 245.413 319.813C245.293 319.933 245.13 320 244.96 320Z" fill="#F3F3F3"/>
<path d="M571.359 320H327.04C326.87 320 326.707 319.933 326.587 319.813C326.467 319.693 326.399 319.53 326.399 319.361C326.399 319.191 326.467 319.029 326.587 318.909C326.707 318.789 326.87 318.722 327.04 318.722H571.359C571.529 318.722 571.692 318.789 571.812 318.909C571.933 319.029 572 319.191 572 319.361C572 319.53 571.933 319.693 571.812 319.813C571.692 319.933 571.529 320 571.359 320Z" fill="#F3F3F3"/>
<path d="M252.845 12.6211H251.563V206.275H252.845V12.6211Z" fill="#CBCBCB"/>
</g>
<defs>
<clipPath id="clip0_73_958">
<rect width="572" height="320" fill="white"/>
</clipPath>
</defs>
</svg>
