<svg width="572" height="320" viewBox="0 0 572 320" fill="none" xmlns="http://www.w3.org/2000/svg">
<path d="M255.156 278.002L259.223 264.785C254.329 259.411 248.194 255.31 241.35 252.838C248.037 263.889 241.558 278.305 244.258 290.929C245.13 294.86 246.878 298.545 249.371 301.71C251.865 304.876 255.041 307.441 258.663 309.215L264.836 316.846C268.072 311.205 270.044 304.931 270.616 298.457C271.187 291.983 270.346 285.462 268.148 279.344C266.881 275.924 265.188 272.676 263.108 269.678C259.44 273.98 255.156 278.002 255.156 278.002Z" fill="#F3F3F3"/>
<path d="M232.789 279.69L230.521 266.051C223.739 263.419 216.414 262.478 209.184 263.311C220.108 270.227 220.754 286.013 228.814 296.11C231.351 299.24 234.563 301.761 238.21 303.484C241.857 305.208 245.846 306.091 249.881 306.067L258.817 310.15C259.192 303.662 258.152 297.169 255.77 291.12C253.388 285.071 249.719 279.609 245.018 275.111C242.355 272.613 239.387 270.46 236.185 268.702C234.825 274.185 232.789 279.69 232.789 279.69Z" fill="#F3F3F3"/>
<path d="M103.997 139.375C101.885 143.119 97.6654 145.208 93.4829 146.231C88.785 147.459 83.8381 147.363 79.1913 145.956C78.6017 145.766 78.0121 145.545 77.4409 145.3C77.7155 144.572 77.9332 143.825 78.0919 143.063C78.3057 142.033 78.4127 140.984 78.4113 139.932C77.9459 140.838 77.3431 141.667 76.6241 142.389C76.0694 142.971 75.4395 143.476 74.7509 143.891C72.6151 142.597 70.7657 140.884 69.3155 138.854C69.4076 138.627 69.4998 138.401 69.5858 138.174C70.0317 136.99 70.3849 135.773 70.6421 134.534C70.9911 132.859 71.166 131.153 71.1642 129.442C70.4069 130.916 69.4248 132.264 68.253 133.437C67.9017 133.812 67.5284 134.166 67.1353 134.497C66.5263 132.653 66.2909 130.705 66.4428 128.769C66.5946 126.832 67.1306 124.945 68.0196 123.217C70.4517 118.732 75.1685 116.066 79.3694 113.168C83.5764 110.27 87.7835 106.348 88.1397 101.257C88.3792 97.8192 86.7824 94.3756 87.4211 90.9934C87.6897 89.5671 88.3456 88.2417 89.3171 87.1616C90.2887 86.0815 91.5387 85.2881 92.931 84.8678C94.3233 84.4475 95.8045 84.4165 97.2133 84.7781C98.6221 85.1398 99.9043 85.8802 100.92 86.9187C98.5375 90.2887 96.1668 93.7752 95.2026 97.7824C94.2199 101.863 95.0245 106.649 98.2489 109.351C99.3543 110.282 100.712 110.944 101.565 112.108C102.702 113.652 102.708 115.711 102.892 117.611C103.26 121.305 104.47 124.859 105.121 128.517C105.779 132.169 105.815 136.133 103.997 139.375Z" fill="#2C3143"/>
<path d="M60.6876 291.323L66.293 295.644L85.6652 276.13L77.3921 269.753L60.6876 291.323Z" fill="#EEC0B2"/>
<path d="M60.9261 287.102L70.1953 293.404L67.2619 297.192L71.1904 309.49C71.3846 310.098 71.379 310.751 71.1745 311.355C70.97 311.959 70.5774 312.482 70.0539 312.848C69.5304 313.213 68.9035 313.402 68.2647 313.387C67.6259 313.372 67.0086 313.154 66.5029 312.764L55.9541 304.632L57.0374 299.484L53.4259 302.683L49.4486 299.617L60.9261 287.102Z" fill="#2C3143"/>
<path d="M89.1255 98.4359C89.1247 100.621 89.6615 102.773 90.6888 104.702C91.7161 106.632 93.2025 108.28 95.0175 109.503C96.8325 110.726 98.9205 111.485 101.098 111.715C103.276 111.945 105.477 111.637 107.509 110.82C109.54 110.003 111.339 108.701 112.748 107.028C114.157 105.356 115.132 103.363 115.589 101.227C116.047 99.0898 115.971 96.8737 115.369 94.7729C114.767 92.6721 113.658 90.7507 112.138 89.1776L112.074 89.1136C111.967 89.0014 111.86 88.8893 111.747 88.7825L111.745 88.7821L111.743 88.781L111.742 88.7792L111.742 88.7772C111.603 88.649 111.464 88.5209 111.319 88.3981C108.964 86.3371 105.655 84.1002 102.278 84.1002C94.8871 84.1002 89.1255 91.0624 89.1255 98.4359Z" fill="#2C3143"/>
<path d="M165.385 91.5811C165.45 92.293 165.356 93.0103 165.112 93.6824C164.869 94.3545 164.48 94.9651 163.974 95.4712C163.468 95.9773 162.857 96.3665 162.184 96.6115C161.511 96.8564 160.792 96.9512 160.078 96.8891L126.948 126.733L121.246 117.749L155.605 91.2386C155.79 90.0493 156.405 88.9686 157.334 88.2014C158.263 87.4342 159.442 87.0338 160.648 87.076C161.853 87.1182 163.002 87.6001 163.875 88.4304C164.748 89.2608 165.285 90.3818 165.385 91.5811Z" fill="#EEC0B2"/>
<path d="M112.788 135.741C112.788 135.741 114.021 138.012 118.232 134.505C121.603 131.697 137.753 119.507 141.232 114.512C142.027 114.826 142.903 114.868 143.724 114.63C144.545 114.392 145.263 113.889 145.765 113.199L136.232 104.87C133.38 105.197 133.441 107.109 133.738 108.194L126.547 111.445L107.978 123.284L111.868 134.115L112.788 135.741Z" fill="#F17900"/>
<path d="M94.799 156.667L94.1046 159.966L93.515 172.136L119.474 173.559L118.668 154.842L116.152 150.718L94.799 156.667Z" fill="#EEC0B2"/>
<path d="M105.801 112.717C111.997 112.717 117.02 107.706 117.02 101.524C117.02 95.3425 111.997 90.3312 105.801 90.3312C99.6049 90.3312 94.582 95.3425 94.582 101.524C94.582 107.706 99.6049 112.717 105.801 112.717Z" fill="#EEC0B2"/>
<path d="M85.8828 142.809L85.8138 133.505C85.8122 130.157 86.9477 126.908 89.0351 124.287C91.1226 121.666 94.0387 119.827 97.3077 119.072L97.3501 119.062L99.5685 116.08L108.582 116.98L110.234 120.348L116.765 124.228L119.279 132.293C120.37 133.018 121.299 133.959 122.01 135.058C122.721 136.157 123.197 137.39 123.41 138.68C124.264 144.12 120.446 149.564 119.992 150.188L118.821 156.763L93.3653 161.244L93.1586 161.27L85.8828 142.809Z" fill="#F17900"/>
<path d="M119.53 99.5287C118.221 100.356 116.863 101.103 115.464 101.765C114.043 102.446 112.558 102.982 111.03 103.365C110.592 102.407 110.057 101.498 109.433 100.65C109.593 101.654 109.598 102.678 109.445 103.683C106.912 104.091 104.317 103.878 101.885 103.064L99.7719 99.5288L99.6122 103.475C97.8619 103.793 96.1176 104.094 94.3673 104.406C94.2629 104.418 94.1585 104.443 94.0602 104.461C92.9731 99.5717 94.5147 94.1857 97.9417 90.926C99.6432 89.3245 101.766 88.2381 104.062 87.7933C106.359 87.3486 108.734 87.5638 110.913 88.4138C111.189 88.5241 111.472 88.6466 111.742 88.7753L111.742 88.7777L111.744 88.7797L111.746 88.781L111.748 88.7815C111.908 88.8611 112.043 89.051 112.221 89.0327C119.886 88.1809 120.132 94.1122 119.53 99.5287Z" fill="#2C3143"/>
<path d="M100.866 276.891L106.48 281.2L125.813 261.647L117.527 255.287L100.866 276.891Z" fill="#EEC0B2"/>
<path d="M101.605 273.059L110.887 279.343L107.961 283.136L111.914 295.427C112.11 296.034 112.105 296.687 111.902 297.292C111.699 297.896 111.307 298.42 110.785 298.787C110.262 299.153 109.635 299.344 108.996 299.33C108.358 299.316 107.74 299.099 107.233 298.71L96.6682 290.599L97.7411 285.449L94.1361 288.656L90.1526 285.597L101.605 273.059Z" fill="#2C3143"/>
<path d="M82.6484 253.027L82.6482 252.954L85.3089 248.38L82.592 242.425L82.5105 227.127L82.9509 224.83C83.5432 221.742 83.3709 218.555 82.4488 215.548L82.3992 206.236C82.3037 203.903 85.9259 201.852 85.0812 199.907C77.0971 181.525 93.2343 167.502 93.3433 167.389L93.6731 167.047L95.4623 168.399L97.1653 168.401L120.146 172.579L120.312 172.888C121.216 174.579 122.961 180.409 123.064 183.048C124.21 184.371 137.256 199.432 138.416 200.479C146.253 207.553 150.74 219.262 152.717 225.613C153.208 227.182 153.307 228.847 153.005 230.464C152.703 232.08 152.01 233.598 150.986 234.886L121.317 267.308L113.333 259.955L129.386 230.769L128.229 227.808C126.152 227.426 124.272 226.337 122.91 224.726L119.659 220.876C118.759 219.813 118.188 218.513 118.013 217.132L116.042 216.896L108.98 209.499L104.081 253.762L102.749 257.259L79.5537 284.464L69.7271 278.337L82.6484 253.027Z" fill="#2C3143"/>
<path d="M79.106 62.9663C78.6604 63.526 78.3432 64.1764 78.1768 64.8716C78.0103 65.5669 77.9987 66.2901 78.1427 66.9903C78.2867 67.6905 78.5829 68.3507 79.0103 68.9244C79.4377 69.498 79.986 69.9712 80.6166 70.3106L73.241 92.0951L79.2636 115.181L88.9751 110.801L82.9823 93.3878L87.4658 68.0418C87.9671 66.9472 88.0485 65.7071 87.6946 64.5566C87.3407 63.4062 86.576 62.4252 85.5456 61.7996C84.5151 61.1739 83.2904 60.9472 82.1036 61.1622C80.9167 61.3772 79.8502 62.0192 79.106 62.9663Z" fill="#EEC0B2"/>
<path d="M87.9956 134.203C87.9956 134.203 85.7146 135.424 84.1283 130.186C82.8583 125.992 74.2156 103.221 74.0599 97.1399C73.2231 96.9667 72.4679 96.5207 71.9132 95.8722C71.3585 95.2237 71.0358 94.4095 70.996 93.5578L83.5485 91.8248C85.7512 93.6621 84.6472 95.2258 83.8012 95.9698L88.0765 103.195L97.0126 122.699L89.6601 133.348L87.9956 134.203Z" fill="#F17900"/>
<path d="M94.3648 104.405C95.6539 100.527 97.9653 97.066 101.057 94.3858C104.148 91.7057 107.905 89.9048 111.935 89.1723C111.951 89.167 112.004 89.1456 112.074 89.1136C112.116 89.0869 112.17 89.0602 112.224 89.0335C112.063 88.9427 111.908 88.8627 111.747 88.7825L111.745 88.7821L111.743 88.781L111.742 88.7792L111.742 88.7772C111.603 88.649 111.464 88.5209 111.319 88.3981L110.912 88.4141C110.912 88.4141 96.6179 86.1556 94.3648 104.405Z" fill="#F17900"/>
<path d="M303.165 238.844C304.545 236.775 303.728 233.812 301.34 232.227C298.952 230.641 295.897 231.034 294.517 233.104C293.136 235.174 293.953 238.137 296.341 239.722C298.729 241.307 301.784 240.914 303.165 238.844Z" fill="#F3F3F3"/>
<path d="M275.146 161.591C276.526 159.521 275.709 156.558 273.321 154.973C270.933 153.388 267.878 153.781 266.498 155.85C265.117 157.92 265.934 160.883 268.322 162.468C270.71 164.053 273.765 163.66 275.146 161.591Z" fill="#F3F3F3"/>
<path d="M422.413 312.691L415.358 312.69L412.003 285.544L422.414 285.545L422.413 312.691Z" fill="#EEC0B2"/>
<path d="M424.212 319.513L401.466 319.512V319.225C401.466 316.883 402.399 314.636 404.059 312.98C405.72 311.323 407.972 310.392 410.32 310.392H410.32L414.475 307.248L422.227 310.393L424.213 310.393L424.212 319.513Z" fill="#2C3143"/>
<path d="M536.369 287.02L531.559 292.168L509.366 276.109L516.465 268.511L536.369 287.02Z" fill="#EEC0B2"/>
<path d="M542.598 290.358L527.089 306.959L526.879 306.763C525.161 305.166 524.15 302.953 524.067 300.612C523.985 298.271 524.837 295.993 526.438 294.279L526.966 289.102L534.557 285.589L535.911 284.14L542.598 290.358Z" fill="#2C3143"/>
<path d="M525.931 271.763L518.475 287.322L472.687 257.077L466.026 248.022L444.186 218.334L435.308 232.388L429.13 247.08C427.117 248.39 425.42 250.13 424.163 252.174C422.906 254.218 422.12 256.515 421.86 258.899L421.578 261.5L425.481 296.51L410.644 301.055L402.123 254.024L404.909 243.832L407.777 229.527L422.215 184.321H460.853L483.014 231.382L484.634 240.971L490.918 248.166L525.931 271.763Z" fill="#2C3143"/>
<path d="M445.634 110.359L452.139 115.301L459.983 117.705C459.983 117.705 463.225 163.214 466.147 166.129C469.069 169.044 466.434 169.122 467.021 172.909C467.608 176.696 469.035 184.459 469.035 184.459C449.312 194.875 432.309 195.154 418.651 182.966C418.476 182.212 418.565 181.421 418.902 180.724C419.24 180.028 419.806 179.467 420.507 179.135C423.049 177.789 418.163 171.509 420.241 170.459C422.318 169.408 419.396 160.299 419.396 160.299L421.313 141.292L419.799 138.253L423.494 119.663L429.907 117.326L432.468 111.169L445.634 110.359Z" fill="#F17900"/>
<path d="M449.709 191.243C449.68 190.421 449.831 189.603 450.153 188.846C450.476 188.089 450.96 187.412 451.573 186.862C452.186 186.312 452.912 185.903 453.701 185.663C454.489 185.423 455.321 185.359 456.137 185.475L465.303 167.699L470.41 176.752L460.923 192.244C460.637 193.599 459.863 194.802 458.748 195.626C457.632 196.449 456.252 196.836 454.87 196.713C453.488 196.589 452.199 195.964 451.248 194.956C450.296 193.948 449.749 192.627 449.709 191.243Z" fill="#EEC0B2"/>
<path d="M465.146 186.895L484.807 156.494L484.742 156.354C484.668 156.194 480.216 146.6 475.902 137.814C475.237 136.461 474.576 135.127 473.935 133.849C473.658 133.298 473.386 132.758 473.117 132.23C471.305 128.666 469.722 125.72 468.777 124.321C466.687 121.158 463.575 118.803 459.958 117.647L459.868 117.624L459.781 117.66C458.012 118.405 456.55 119.729 455.636 121.413C454.722 123.098 454.411 125.044 454.755 126.928C456.46 136.02 460.26 144.591 465.855 151.966L469.042 156.158L457.966 180.183L465.146 186.895Z" fill="#F17900"/>
<path d="M397.538 70.363C398.079 70.9831 398.478 71.7142 398.705 72.5046C398.933 73.295 398.984 74.1256 398.855 74.9378C398.726 75.75 398.42 76.5242 397.959 77.2057C397.497 77.8872 396.892 78.4595 396.185 78.8823L400.283 98.4497L390.602 94.6257L388.195 76.6304C387.561 75.3984 387.403 73.9774 387.75 72.6368C388.097 71.2961 388.924 70.129 390.076 69.3564C391.228 68.5839 392.623 68.2596 393.999 68.4452C395.374 68.6307 396.633 69.3131 397.538 70.363Z" fill="#EEC0B2"/>
<path d="M388.29 83.4391L392.205 119.407L392.344 119.475C392.458 119.531 397.418 121.958 403.506 124.849C404.533 125.336 404.386 127.449 405.459 127.953C406.199 128.301 408.151 127.039 408.898 127.388C415.553 130.493 422.282 133.512 424.964 134.33C428.584 135.474 432.488 135.349 436.027 133.974L436.113 133.935L436.157 133.853C437.061 132.163 437.361 130.216 437.008 128.333C436.654 126.45 435.668 124.744 434.212 123.495C427.149 117.504 418.787 113.233 409.785 111.018L404.664 109.764L398.105 84.1422L388.29 83.4391Z" fill="#F17900"/>
<path d="M438.699 108.322C445.805 108.322 451.565 102.575 451.565 95.486C451.565 88.3971 445.805 82.6505 438.699 82.6505C431.594 82.6505 425.834 88.3971 425.834 95.486C425.834 102.575 431.594 108.322 438.699 108.322Z" fill="#EEC0B2"/>
<path d="M425.926 86.8851C426.984 83.8142 432.251 81.6842 440.789 81.388C449.328 81.0919 451.493 91.1307 451.493 91.1307C457.193 95.7438 445.407 108.094 444.837 107.65L445.093 105.329C445.518 101.486 447.322 98.4867 445.027 94.4811L442.824 94.5063C439.979 95.0522 437.134 95.598 434.288 96.1439L437.657 93.1849L437.562 93.0383C436.129 93.7829 434.57 94.2552 432.964 94.4312C431.153 94.5373 429.174 93.8185 428.307 92.2293C428.075 91.7925 427.934 91.3139 427.891 90.8216C425.449 91.7948 424.333 94.7975 424.333 94.7975C424.333 94.7975 424.868 89.956 425.926 86.8851Z" fill="#2C3143"/>
<path d="M452.128 275.612C453.682 273.282 452.763 269.946 450.074 268.161C447.385 266.377 443.946 266.819 442.392 269.15C440.838 271.48 441.758 274.816 444.446 276.6C447.135 278.385 450.574 277.943 452.128 275.612Z" fill="#F3F3F3"/>
<path d="M155.428 31.9874C156.809 29.9176 155.992 26.9547 153.604 25.3696C151.215 23.7845 148.161 24.1775 146.78 26.2473C145.4 28.3171 146.217 31.28 148.605 32.8651C150.993 34.4502 154.048 34.0572 155.428 31.9874Z" fill="#F3F3F3"/>
<path d="M265.976 7.59149C267.356 5.52166 266.539 2.55877 264.151 0.973683C261.763 -0.61141 258.708 -0.218467 257.328 1.85136C255.948 3.92118 256.764 6.8841 259.153 8.46919C261.541 10.0543 264.595 9.66131 265.976 7.59149Z" fill="#F3F3F3"/>
<path d="M213.657 212.27C215.037 210.201 214.22 207.238 211.832 205.653C209.444 204.068 206.389 204.46 205.009 206.53C203.628 208.6 204.445 211.563 206.833 213.148C209.222 214.733 212.276 214.34 213.657 212.27Z" fill="#F3F3F3"/>
<path d="M502.876 320H71.1216C70.9123 320 70.7118 319.936 70.564 319.822C70.4163 319.709 70.3333 319.555 70.3333 319.395C70.3333 319.235 70.4163 319.081 70.564 318.968C70.7118 318.854 70.9123 318.79 71.1216 318.79H502.876C503.086 318.79 503.287 318.853 503.435 318.967C503.583 319.08 503.667 319.234 503.667 319.395C503.667 319.555 503.583 319.709 503.435 319.823C503.287 319.936 503.086 320 502.876 320Z" fill="#F3F3F3"/>
<path d="M169.587 117.219C166.561 117.211 163.644 116.089 161.394 114.07C159.144 112.051 157.718 109.275 157.391 106.273L150.367 41.1909C150.022 37.9595 150.975 34.7235 153.019 32.1929C155.062 29.6623 158.028 28.0436 161.266 27.6922L369.824 5.28843C373.063 4.94398 376.307 5.89543 378.843 7.93404C381.38 9.97265 383.003 12.9319 383.355 16.1626L390.379 81.2446C390.724 84.476 389.77 87.7121 387.727 90.2429C385.683 92.7736 382.717 94.3923 379.479 94.7438L170.921 117.148C170.478 117.195 170.033 117.219 169.587 117.219Z" fill="#F3F3F3"/>
<g clip-path="url(#clip0_73_1311)">
<path fill-rule="evenodd" clip-rule="evenodd" d="M208.081 43.6896L210.13 63.1825L214.32 62.7422L213.055 50.7121L219.051 58.0208L221.483 57.7651L224.705 51.5625L225.382 50.2602L222.825 46.7514L222.148 48.0581L219.736 52.7123L211.964 43.2815L208.081 43.6896ZM263.941 41.4965L260.82 41.8246L262.099 53.9939L265.22 53.6658C269.096 53.2585 270.968 50.9734 270.546 46.9542C270.123 42.935 267.816 41.0901 263.941 41.4974L263.941 41.4965ZM263.554 37.8125C270.495 37.083 274.216 40.8398 274.812 46.5059C275.407 52.1719 272.549 56.6202 265.608 57.3498L258.303 58.1175L256.25 38.5802L263.554 37.8125ZM283.281 35.7391C285.505 35.5054 287.813 35.8052 289.517 36.5488L289.912 40.3055C288.212 39.3454 286.036 39.0039 283.948 39.2503C281.914 39.491 280.955 40.162 281.076 41.3158C281.417 44.5634 291.557 42.2765 292.259 48.9589C292.702 53.1724 289.462 54.8426 285.522 55.2567C282.922 55.5299 280.444 55.1663 278.402 54.2961L277.998 50.4578C280.107 51.5524 282.493 52.0004 284.855 51.7456C287.026 51.5174 288.319 50.9198 288.178 49.578C287.808 46.0625 277.68 48.4567 276.981 41.8009C276.6 38.1772 279.582 36.1279 283.281 35.7391ZM307.691 33.1736L308.078 36.8575L298.517 37.8625L298.954 42.0218L307.68 41.1047L308.064 44.7603L299.338 45.6774L299.796 50.0318L309.525 49.0093L309.912 52.6932L296.002 54.1552L293.948 34.618L307.691 33.1736ZM313.288 52.3384L311.235 32.8011L315.165 32.388L325.593 44.1884C325.443 43.3021 325.321 42.4112 325.228 41.5171L324.169 31.4416L328.351 31.0021L330.404 50.5394L326.474 50.9525L316.046 39.1521C316.187 39.9559 316.317 40.9294 316.411 41.8234L317.47 51.8989L313.288 52.3384ZM244.268 43.462C244.253 43.0922 244.128 42.7352 243.91 42.4362L242.185 40.0603L240.679 40.2186L242.847 43.207C242.931 43.3205 242.969 43.4608 242.955 43.6009L244.268 43.462Z" fill="#1F1F1F"/>
<path fill-rule="evenodd" clip-rule="evenodd" d="M254.591 49.5278L250.819 58.0074C250.693 58.2936 250.494 58.5413 250.241 58.7257C249.989 58.91 249.692 59.0243 249.381 59.057L240.158 60.0264C239.847 60.0592 239.532 60.0092 239.247 59.8814C238.961 59.7537 238.715 59.5527 238.532 59.2989L235.291 54.8326L234.399 53.6056L233.08 51.7895C232.897 51.5357 232.783 51.2382 232.75 50.9267C232.717 50.6152 232.767 50.3005 232.893 50.0141L236.665 41.5353C236.791 41.2496 236.991 41.0024 237.243 40.8186C237.496 40.6347 237.793 40.5208 238.103 40.4884L240.682 40.2173L242.852 43.2065C242.936 43.3232 242.974 43.4626 242.958 43.5996L239.524 43.9606L236.606 50.5232L238.521 53.1598L239.306 54.2429L240.824 56.3348L247.96 55.5849L250.877 49.0232L246.659 43.2107L244.273 43.4615C244.257 43.0916 244.132 42.7347 243.914 42.4358L242.189 40.0598L247.328 39.5198C247.638 39.4867 247.952 39.5364 248.238 39.6637C248.523 39.791 248.77 39.9914 248.953 40.2447L254.405 47.754C254.778 48.2708 254.848 48.9448 254.591 49.5286" fill="#1F1F1F"/>
<mask id="mask0_73_1311" style="mask-type:luminance" maskUnits="userSpaceOnUse" x="219" y="32" width="27" height="25">
<path fill-rule="evenodd" clip-rule="evenodd" d="M219.718 35.3982L243.166 32.9337L245.357 53.7746L221.907 56.2392L219.718 35.3982Z" fill="white"/>
</mask>
<g mask="url(#mask0_73_1311)">
<path fill-rule="evenodd" clip-rule="evenodd" d="M230.49 54.0164L230.627 55.3227L235.288 54.8329L234.396 53.6058L230.49 54.0164ZM243.912 42.4359L242.187 40.0601L238.095 34.4216C237.899 34.1518 237.636 33.9384 237.331 33.8028C237.026 33.6672 236.691 33.6141 236.36 33.6491L226.525 34.6828C225.849 34.7538 225.265 35.181 224.989 35.7992L220.964 44.8479C220.829 45.1527 220.777 45.4874 220.812 45.8188C220.846 46.1502 220.968 46.4667 221.163 46.7369L222.101 48.0307L224.654 51.5453L226.234 53.7231L225.959 51.1113L225.329 50.2397L222.776 46.7215L222.227 45.966C222.166 45.8824 222.128 45.7843 222.117 45.6816C222.107 45.5788 222.123 45.475 222.165 45.3807L226.185 36.3351C226.227 36.2406 226.294 36.1589 226.377 36.0982C226.461 36.0375 226.559 35.9998 226.662 35.9891L236.497 34.9554C236.705 34.9335 236.912 35.0229 237.035 35.1947L240.681 40.2183L242.849 43.2067C242.933 43.3225 242.971 43.4629 242.957 43.5998C242.954 43.6665 242.938 43.732 242.911 43.7929L238.889 52.8377C238.856 52.9155 238.805 52.9848 238.741 53.0405C238.677 53.0962 238.602 53.137 238.52 53.1599L239.303 54.2432C239.65 54.043 239.924 53.7387 240.087 53.3735L244.111 44.3249C244.233 44.0484 244.284 43.7535 244.27 43.4617C244.255 43.0919 244.13 42.735 243.912 42.4359Z" fill="#F17900"/>
</g>
<path fill-rule="evenodd" clip-rule="evenodd" d="M229.166 41.4287L231.219 60.966L227.04 61.4052L225.776 49.3733L225.327 50.24L222.774 46.7218L225.292 41.835L229.166 41.4287Z" fill="#1F1F1F"/>
</g>
<path d="M244.508 69.2762L246.57 88.8972L242.987 89.2738L233.153 77.8217L233.009 77.8368L234.307 90.1861L230.159 90.6221L228.096 71.0011L231.737 70.6185L241.503 82.0681L241.676 82.05L240.379 69.7102L244.508 69.2762ZM266.458 76.8881C266.682 79.0278 266.468 80.8907 265.815 82.4769C265.168 84.0624 264.19 85.3244 262.881 86.2627C261.577 87.194 260.06 87.7506 258.329 87.9325C256.585 88.1158 254.979 87.8843 253.51 87.2379C252.041 86.5916 250.825 85.5603 249.862 84.1439C248.9 82.7275 248.306 80.9527 248.082 78.8194C247.857 76.6798 248.068 74.8172 248.715 73.2317C249.362 71.6461 250.337 70.3877 251.641 69.4564C252.944 68.5188 254.467 67.9583 256.211 67.775C257.941 67.5931 259.541 67.8253 261.011 68.4716C262.486 69.1109 263.704 70.1387 264.667 71.5551C265.636 72.9708 266.233 74.7484 266.458 76.8881ZM262.252 77.3302C262.106 75.9442 261.776 74.7972 261.26 73.8891C260.752 72.9804 260.098 72.3194 259.299 71.9062C258.5 71.4929 257.599 71.339 256.596 71.4444C255.593 71.5498 254.744 71.8876 254.049 72.458C253.353 73.0283 252.848 73.8112 252.533 74.8065C252.224 75.8011 252.142 76.9914 252.288 78.3774C252.434 79.7634 252.761 80.9107 253.27 81.8194C253.785 82.7275 254.442 83.3881 255.241 83.8014C256.04 84.2146 256.941 84.3686 257.943 84.2632C258.946 84.1578 259.795 83.8199 260.491 83.2496C261.187 82.6792 261.689 81.8967 261.998 80.9021C262.313 79.9068 262.397 78.7161 262.252 77.3302ZM266.676 70.4043L266.317 66.984L282.431 65.2903L282.791 68.7106L276.784 69.342L278.487 85.5427L274.386 85.9737L272.683 69.7729L266.676 70.4043ZM286.608 84.6891L284.546 65.0681L297.767 63.6785L298.126 67.0988L289.053 68.0524L289.545 72.7277L297.937 71.8456L298.297 75.2658L289.904 76.1479L290.397 80.8328L299.508 79.8752L299.867 83.2955L286.608 84.6891ZM311.762 67.9128C311.604 67.148 311.212 66.5822 310.586 66.2154C309.96 65.8485 309.149 65.7175 308.152 65.8222C307.475 65.8933 306.914 66.0492 306.468 66.2899C306.021 66.5241 305.69 66.8204 305.476 67.1787C305.268 67.5363 305.187 67.9259 305.231 68.3474C305.255 68.7001 305.361 68.9989 305.548 69.244C305.742 69.4884 305.992 69.6913 306.3 69.8527C306.607 70.0077 306.956 70.1357 307.347 70.2366C307.738 70.3311 308.153 70.4038 308.591 70.4546L310.398 70.6909C311.274 70.7926 312.086 70.9655 312.835 71.2096C313.584 71.4538 314.245 71.7815 314.818 72.1927C315.391 72.6039 315.854 73.1106 316.208 73.7127C316.568 74.3141 316.794 75.0233 316.887 75.8401C317.006 77.0416 316.809 78.1149 316.295 79.0601C315.787 79.9982 314.99 80.7697 313.904 81.3746C312.824 81.9725 311.485 82.3553 309.888 82.5231C308.304 82.6896 306.899 82.5919 305.673 82.23C304.453 81.8674 303.464 81.2449 302.706 80.3624C301.954 79.4728 301.488 78.3239 301.308 76.9157L305.322 76.4938C305.436 77.147 305.682 77.6765 306.06 78.0823C306.445 78.481 306.929 78.7626 307.515 78.9271C308.106 79.0845 308.76 79.1256 309.475 79.0504C310.177 78.9766 310.777 78.8103 311.273 78.5515C311.775 78.2921 312.151 77.9652 312.4 77.571C312.649 77.1767 312.749 76.7432 312.699 76.2706C312.653 75.8299 312.483 75.4732 312.189 75.2005C311.902 74.9272 311.499 74.7113 310.978 74.5529C310.464 74.3938 309.841 74.2656 309.107 74.1684L306.914 73.8564C305.218 73.6279 303.845 73.1361 302.797 72.3809C301.749 71.6257 301.152 70.5229 301.006 69.0724C300.875 67.885 301.082 66.8139 301.628 65.859C302.179 64.9034 302.991 64.1174 304.063 63.5011C305.135 62.8847 306.386 62.5014 307.817 62.351C309.273 62.1979 310.57 62.3135 311.708 62.6975C312.853 63.0809 313.775 63.6846 314.475 64.5087C315.175 65.3327 315.596 66.3281 315.738 67.4949L311.762 67.9128Z" fill="#1F1F1F"/>
<path d="M342.154 113.847C341.747 113.49 341.425 113.048 341.211 112.552C340.997 112.056 340.897 111.519 340.917 110.979C341.139 104.565 340.081 98.1709 337.802 92.1692C337.609 91.6646 337.531 91.1235 337.574 90.5851C337.616 90.0467 337.779 89.5246 338.049 89.0566C338.308 88.6069 338.663 88.2192 339.088 87.9208C339.513 87.6223 339.999 87.4203 340.51 87.329C345.655 84.2317 350.929 83.3622 356.189 84.7451C357.037 84.6205 357.902 84.8016 358.629 85.256C359.355 85.7103 359.895 86.4081 360.152 87.224C362.282 94.1216 363.466 101.275 363.674 108.489C363.694 109.355 363.4 110.198 362.846 110.865C362.293 111.532 361.517 111.977 360.661 112.119L345.095 114.684C344.574 114.771 344.039 114.741 343.53 114.596C343.021 114.452 342.551 114.195 342.154 113.847Z" fill="#287FE4"/>
<path d="M343.537 95.1591L356.638 92.9997C356.746 92.9822 356.849 92.9437 356.942 92.8863C357.034 92.829 357.115 92.7539 357.179 92.6655C357.242 92.577 357.288 92.4769 357.313 92.3709C357.337 92.2649 357.341 92.155 357.323 92.0475C357.305 91.9401 357.267 91.8372 357.209 91.7448C357.151 91.6524 357.076 91.5722 356.987 91.5089C356.898 91.4456 356.798 91.4003 356.691 91.3758C356.585 91.3513 356.475 91.3479 356.367 91.3659L343.266 93.5253C343.05 93.5615 342.856 93.682 342.728 93.8604C342.601 94.0388 342.549 94.2605 342.585 94.4768C342.621 94.6931 342.741 94.8865 342.919 95.0144C343.098 95.1423 343.32 95.1943 343.537 95.1591Z" fill="white"/>
<path d="M344.619 101.694L357.72 99.5349C357.937 99.4991 358.131 99.3787 358.259 99.2002C358.387 99.0217 358.439 98.7997 358.403 98.583C358.368 98.3664 358.247 98.1728 358.068 98.0449C357.889 97.917 357.667 97.8653 357.449 97.9011L344.348 100.06C344.241 100.078 344.138 100.116 344.045 100.174C343.952 100.231 343.871 100.306 343.808 100.395C343.744 100.483 343.699 100.583 343.674 100.689C343.649 100.795 343.645 100.905 343.663 101.013C343.681 101.12 343.72 101.223 343.777 101.315C343.835 101.408 343.911 101.488 343.999 101.551C344.088 101.615 344.189 101.66 344.295 101.684C344.401 101.709 344.511 101.712 344.619 101.694Z" fill="white"/>
<path d="M345.701 108.229L358.802 106.07C359.019 106.034 359.213 105.914 359.342 105.735C359.47 105.557 359.522 105.335 359.486 105.118C359.45 104.902 359.329 104.708 359.15 104.58C358.971 104.452 358.749 104.4 358.532 104.436L345.431 106.596C345.323 106.613 345.22 106.652 345.128 106.709C345.035 106.767 344.955 106.842 344.891 106.93C344.828 107.019 344.782 107.119 344.758 107.225C344.733 107.33 344.729 107.44 344.747 107.547C344.765 107.655 344.804 107.757 344.861 107.85C344.919 107.942 344.994 108.022 345.083 108.086C345.171 108.149 345.271 108.194 345.378 108.219C345.484 108.244 345.594 108.247 345.701 108.229Z" fill="white"/>
<defs>
<clipPath id="clip0_73_1311">
<rect width="121.276" height="26.752" fill="white" transform="translate(207.334 36.577) rotate(-6)"/>
</clipPath>
</defs>
</svg>
